<?xml version="1.0" encoding="UTF-8"?>
<svg version="1.1" xmlns="http://www.w3.org/2000/svg" width="708" height="274">
<path d="M0 0 C1.32451172 0.65162109 1.32451172 0.65162109 2.67578125 1.31640625 C17.04068768 9.15790261 26.85721336 21.41650827 31.52734375 37.03515625 C32.67451068 41.80395764 33.11861832 46.12469432 33.09765625 51.05078125 C33.0962413 51.70958786 33.09482635 52.36839447 33.09336853 53.04716492 C33.087805 55.13565762 33.07525947 57.22404011 33.0625 59.3125 C33.05748028 60.73502449 33.0529182 62.15755066 33.04882812 63.58007812 C33.03784757 67.05342077 33.02060835 70.52669961 33 74 C30.18743719 74.02684312 27.37512759 74.04676188 24.5625 74.0625 C23.76005859 74.07087891 22.95761719 74.07925781 22.13085938 74.08789062 C20.08704779 74.0965143 18.04316098 74.0522815 16 74 C14.31676258 72.31676258 14.85114861 70.19768083 14.82421875 67.890625 C14.48777173 50.75008385 14.14184704 37.25760649 1.49609375 24.48046875 C-7.1674611 16.66674489 -17.7095454 14.50764365 -29.07421875 14.6875 C-38.65261677 15.44995954 -46.98498616 18.35504423 -54 25 C-54.54140625 25.50144531 -55.0828125 26.00289062 -55.640625 26.51953125 C-63.61973101 34.80087612 -66.46380562 46.47789276 -66.33984375 57.67578125 C-65.3582603 67.27724694 -60.8346174 76.23372877 -54 83 C-43.78548895 91.24043001 -33.60926668 93.17889656 -20.85620117 93.09765625 C-19.97847046 93.09619598 -19.10073975 93.09473572 -18.19641113 93.0932312 C-16.30149453 93.08944462 -14.4065814 93.0833488 -12.5116787 93.07516479 C-9.4939694 93.06229096 -6.47630464 93.05585615 -3.45857239 93.05102539 C4.04444673 93.0377173 11.54742395 93.01366754 19.05041504 92.98962402 C25.38557906 92.96970137 31.72072635 92.95413415 38.05591393 92.94406128 C40.99505528 92.93768858 43.9341261 92.92517684 46.87324524 92.91235352 C55.75276521 92.88769792 64.60579352 92.98582419 73.4753418 93.43359375 C74.24440511 93.47153549 75.01346842 93.50947723 75.80583668 93.54856873 C92.50087747 94.50072364 108.13131379 101.58683455 119.69921875 113.79296875 C130.26948142 126.80465692 135.58640302 143.3516807 134 160 C131.34820382 174.71222515 125.4951634 185.4868346 115 196 C114.36191406 196.6496875 113.72382813 197.299375 113.06640625 197.96875 C101.85097638 208.60125732 87.10424797 212.5387836 71.94897461 212.34936523 C55.32636722 211.75991107 41.37218104 205.11342097 30 193 C20.32409809 182.11244669 14.83286572 168.09819976 14.90234375 153.5078125 C14.90717773 151.70957031 14.90717773 151.70957031 14.91210938 149.875 C14.92467773 148.01875 14.92467773 148.01875 14.9375 146.125 C14.94201172 144.86429688 14.94652344 143.60359375 14.95117188 142.3046875 C14.9629204 139.20307614 14.97934833 136.10156275 15 133 C18.53384559 131.82205147 21.40277553 131.86735683 25.125 131.875 C27.01605469 131.87113281 27.01605469 131.87113281 28.9453125 131.8671875 C32 132 32 132 33 133 C33.12156945 134.6389293 33.17969974 136.28264626 33.2109375 137.92578125 C33.56509475 161.24408299 33.56509475 161.24408299 44.88671875 181.03515625 C54.71362925 190.12842706 65.69914852 192.62065283 78.76171875 192.3125 C89.58218756 191.73528006 98.12975443 186.48177563 105.25 178.5625 C112.9999091 168.95935177 115.09271526 159.18584996 114 147 C111.77119078 135.34879968 106.39562863 126.45696193 96.6287384 119.61361694 C84.11848032 111.93435743 69.24671438 113.43052803 55.14453125 113.4609375 C52.63115081 113.45101698 50.11777764 113.43907061 47.60441589 113.42520142 C41.68809889 113.39625188 35.77193896 113.38326387 29.85555524 113.37962496 C18.63405247 113.37255061 7.4127115 113.33699121 -3.80867958 113.2861824 C-7.47896607 113.27365594 -11.14907831 113.27434981 -14.81938171 113.27645874 C-17.08165621 113.26987509 -19.34392952 113.26286817 -21.60620117 113.25537109 C-22.61580902 113.25949509 -23.62541687 113.26361908 -24.6656189 113.26786804 C-41.47892342 113.17301798 -56.17263404 107.41728263 -68.5625 96 C-80.60741421 83.44970478 -85.65130041 67.87226769 -85.47094727 50.74023438 C-84.94402562 35.25404914 -78.39767853 20.66306253 -67 10 C-48.44721748 -5.50896664 -22.25665389 -11.32356075 0 0 Z " fill="#2370AD" transform="translate(97,27)"/>
<path d="M0 0 C1.32451172 0.65162109 1.32451172 0.65162109 2.67578125 1.31640625 C17.04068768 9.15790261 26.85721336 21.41650827 31.52734375 37.03515625 C32.67451068 41.80395764 33.11861832 46.12469432 33.09765625 51.05078125 C33.0962413 51.70958786 33.09482635 52.36839447 33.09336853 53.04716492 C33.087805 55.13565762 33.07525947 57.22404011 33.0625 59.3125 C33.05748028 60.73502449 33.0529182 62.15755066 33.04882812 63.58007812 C33.03784757 67.05342077 33.02060835 70.52669961 33 74 C30.18743719 74.02684312 27.37512759 74.04676188 24.5625 74.0625 C23.76005859 74.07087891 22.95761719 74.07925781 22.13085938 74.08789062 C20.08704779 74.0965143 18.04316098 74.0522815 16 74 C14.31676258 72.31676258 14.85114861 70.19768083 14.82421875 67.890625 C14.48777173 50.75008385 14.14184704 37.25760649 1.49609375 24.48046875 C-7.1674611 16.66674489 -17.7095454 14.50764365 -29.07421875 14.6875 C-38.65261677 15.44995954 -46.98498616 18.35504423 -54 25 C-54.54140625 25.50144531 -55.0828125 26.00289062 -55.640625 26.51953125 C-63.61973101 34.80087612 -66.46380562 46.47789276 -66.33984375 57.67578125 C-65.3582603 67.27724694 -60.8346174 76.23372877 -54 83 C-43.78548895 91.24043001 -33.60926668 93.17889656 -20.85620117 93.09765625 C-19.97847046 93.09619598 -19.10073975 93.09473572 -18.19641113 93.0932312 C-16.30149453 93.08944462 -14.4065814 93.0833488 -12.5116787 93.07516479 C-9.4939694 93.06229096 -6.47630464 93.05585615 -3.45857239 93.05102539 C4.04444673 93.0377173 11.54742395 93.01366754 19.05041504 92.98962402 C25.38557906 92.96970137 31.72072635 92.95413415 38.05591393 92.94406128 C40.99505528 92.93768858 43.9341261 92.92517684 46.87324524 92.91235352 C55.75276521 92.88769792 64.60579352 92.98582419 73.4753418 93.43359375 C74.24440511 93.47153549 75.01346842 93.50947723 75.80583668 93.54856873 C92.50087747 94.50072364 108.13131379 101.58683455 119.69921875 113.79296875 C130.4643925 127.04458683 135.09573645 143.12144436 134 160 C133.70346842 161.67360626 133.38376973 163.34421931 133 165 C132.67 165 132.34 165 132 165 C132.03480469 163.94941406 132.06960937 162.89882812 132.10546875 161.81640625 C132.2874741 153.98270932 132.28243589 147.26611944 129 140 C128.73703125 139.32066406 128.4740625 138.64132813 128.203125 137.94140625 C126.92181155 134.28532469 126.92181155 134.28532469 124 132 C123.4954642 130.35184971 122.99923237 128.70048973 122.5546875 127.03515625 C120.82489278 120.68851508 119.12733353 116.41189164 114 112 C113.49984375 111.5565625 112.9996875 111.113125 112.484375 110.65625 C109.81637101 108.33858996 107.26384327 106.38085677 104 105 C104 104.34 104 103.68 104 103 C101.94427438 102.2911291 99.88480009 101.59240778 97.81463623 100.92687988 C95.97868368 100.32228755 94.15702695 99.67182366 92.35577393 98.97058105 C81.08749139 95.04377952 69.7736268 95.4594 57.97231293 95.5141449 C54.10363323 95.53155714 50.23569079 95.52381848 46.36700439 95.5098877 C38.16129545 95.4833327 29.95573334 95.48983095 21.75 95.5 C12.220218 95.5117954 2.69085876 95.51031887 -6.83889008 95.47593689 C-10.6378589 95.46887139 -14.43624564 95.48547928 -18.23516846 95.50305176 C-20.57507638 95.49734234 -22.91498195 95.4905243 -25.25488281 95.48242188 C-26.30032257 95.49373642 -27.34576233 95.50505096 -28.42288208 95.51670837 C-37.83756175 95.43908977 -45.46523794 92.69293133 -53 87 C-53.84498047 86.42378906 -53.84498047 86.42378906 -54.70703125 85.8359375 C-64.56919255 78.48766045 -68.25253263 64.49399192 -71 53 C-71.165 52.34 -71.33 51.68 -71.5 51 C-71.665 50.34 -71.83 49.68 -72 49 C-72.18433594 48.40703125 -72.36867188 47.8140625 -72.55859375 47.203125 C-73.08573854 44.57206606 -72.87751214 42.41010248 -72.5625 39.75 C-72.46066406 38.85796875 -72.35882813 37.9659375 -72.25390625 37.046875 C-72.17011719 36.37140625 -72.08632812 35.6959375 -72 35 C-73.32 35.99 -74.64 36.98 -76 38 C-76 36.35 -76 34.7 -76 33 C-79.33097437 35.60684951 -79.46994747 37.91102336 -80 42 C-80.37201373 43.41745378 -80.7472503 44.83406405 -81.125 46.25 C-83.09642446 55.06256156 -80.54640121 64.26208249 -79 73 C-78.34 73 -77.68 73 -77 73 C-76.67 75.31 -76.34 77.62 -76 80 C-75.01 80.33 -74.02 80.66 -73 81 C-73 81.66 -73 82.32 -73 83 C-73.66 83 -74.32 83 -75 83 C-74.2575 84.175625 -74.2575 84.175625 -73.5 85.375 C-72 88 -72 88 -72 90 C-71.34 90 -70.68 90 -70 90 C-69.175 91.010625 -68.35 92.02125 -67.5 93.0625 C-60.55367116 101.34788018 -51.27985812 106.02816191 -41 109 C-37.33285151 109.25063732 -37.33285151 109.25063732 -34 109 C-32.65074309 109.290605 -31.30929768 109.61862569 -29.97518921 109.97232056 C-24.66799088 111.19926048 -19.57506194 111.27845855 -14.14697266 111.25537109 C-13.10018845 111.25899155 -12.05340424 111.262612 -10.97489929 111.26634216 C-8.71603894 111.27320215 -6.45716214 111.27574802 -4.19829178 111.27439499 C-0.6155108 111.27342435 2.96697461 111.28643566 6.54971313 111.30337524 C16.73136125 111.34948568 26.91297751 111.37424774 37.09472656 111.38085938 C43.33627588 111.38588827 49.57751443 111.41020499 55.81895828 111.44618607 C58.18785355 111.45594855 60.55679174 111.45833554 62.92570114 111.45301437 C66.24686417 111.4459029 69.56710736 111.46330988 72.88818359 111.48583984 C74.33649818 111.47358116 74.33649818 111.47358116 75.81407166 111.46107483 C82.7069951 111.54372542 88.79300246 112.90940032 95 116 C95.33 116.66 95.66 117.32 96 118 C95.33613281 117.79503906 94.67226562 117.59007812 93.98828125 117.37890625 C93.10527344 117.10949219 92.22226563 116.84007812 91.3125 116.5625 C90.44238281 116.29566406 89.57226562 116.02882813 88.67578125 115.75390625 C84.45352044 114.56427656 80.52872852 113.87580335 76.13813782 113.85523987 C75.18650253 113.84834137 74.23486725 113.84144287 73.25439453 113.83433533 C71.70594849 113.83041527 71.70594849 113.83041527 70.1262207 113.82641602 C69.02964645 113.819729 67.9330722 113.81304199 66.80326843 113.80615234 C64.4237459 113.79211457 62.04421 113.78021647 59.66466713 113.77020454 C55.89351693 113.75376561 52.12246524 113.730525 48.35136414 113.70530701 C37.62955513 113.63462071 26.90770945 113.57446792 16.18579102 113.52319336 C9.62473791 113.49173451 3.06378851 113.45001602 -3.4971714 113.40299797 C-5.99249034 113.38702885 -8.48783529 113.37468392 -10.98319054 113.36609077 C-14.48199238 113.35387051 -17.98053097 113.32969151 -21.47924805 113.30297852 C-22.50142426 113.30238937 -23.52360046 113.30180023 -24.57675171 113.30119324 C-41.434038 113.13155597 -56.12599974 107.46025621 -68.5625 96 C-80.60741421 83.44970478 -85.65130041 67.87226769 -85.47094727 50.74023438 C-84.94402562 35.25404914 -78.39767853 20.66306253 -67 10 C-48.44721748 -5.50896664 -22.25665389 -11.32356075 0 0 Z " fill="#216FAB" transform="translate(97,27)"/>
<path d="M0 0 C5.81662241 -0.07458679 11.63296163 -0.12880761 17.44995117 -0.16479492 C19.42558649 -0.17980956 21.40118889 -0.20022751 23.37670898 -0.22631836 C26.22908695 -0.26302572 29.08102129 -0.27979993 31.93359375 -0.29296875 C32.80584091 -0.30845261 33.67808807 -0.32393646 34.57676697 -0.33988953 C42.94923907 -0.34214752 51.48851307 1.5721199 57.625 7.5625 C61.12203318 12.02311198 62.27355421 16.92958985 61.7734375 22.54296875 C60.95267297 26.91806101 60.95267297 26.91806101 60 29 C59.01 29.33 58.02 29.66 57 30 C56.87753906 30.63421875 56.75507813 31.2684375 56.62890625 31.921875 C56 34 56 34 53.71484375 35.265625 C52.79832031 35.59046875 51.88179688 35.9153125 50.9375 36.25 C50.01839844 36.58515625 49.09929687 36.9203125 48.15234375 37.265625 C47.44207031 37.50796875 46.73179687 37.7503125 46 38 C46.7425 38.391875 47.485 38.78375 48.25 39.1875 C54.3638057 43.21705376 56.0108261 48.29398261 58 55 C58.350625 56.03125 58.70125 57.0625 59.0625 58.125 C60.12924195 61.39634197 61.07227579 64.68669926 62 68 C63.134375 68.144375 64.26875 68.28875 65.4375 68.4375 C69 69 69 69 70 70 C70.04080783 71.99958364 70.04254356 74.00045254 70 76 C66.8870419 77.55647905 63.60088167 77.18446048 60.1875 77.1875 C59.47529297 77.19974609 58.76308594 77.21199219 58.02929688 77.22460938 C53.8982511 77.23607389 50.71232998 76.84522492 47 75 C47 74.34 47 73.68 47 73 C46.34 73 45.68 73 45 73 C44.74605469 71.97261719 44.49210937 70.94523437 44.23046875 69.88671875 C43.5195257 67.01621678 42.79942963 64.1481785 42.07421875 61.28125 C41.42724878 58.72285517 40.80545938 56.16433782 40.20703125 53.59375 C39.85705078 52.15515625 39.85705078 52.15515625 39.5 50.6875 C39.20609375 49.42486328 39.20609375 49.42486328 38.90625 48.13671875 C37.69177052 45.27326928 36.75482366 44.48638429 34 43 C31.03 42.34 28.06 41.68 25 41 C25 50.24 25 59.48 25 69 C26.98 68.505 26.98 68.505 29 68 C31.75 68.9375 31.75 68.9375 34 70 C34 71.98 34 73.96 34 76 C22.78 76 11.56 76 0 76 C-1 72 -1 72 0 69 C4.75 67.875 4.75 67.875 7 69 C7 48.54 7 28.08 7 7 C4.69 7 2.38 7 0 7 C-0.93423645 3.98968256 -1.04449911 3.13349732 0 0 Z M25 7 C24.04623433 10.20782086 23.88378819 13.08187396 23.90234375 16.421875 C23.90556641 17.44667969 23.90878906 18.47148438 23.91210938 19.52734375 C23.92048828 20.59082031 23.92886719 21.65429688 23.9375 22.75 C23.94201172 23.82894531 23.94652344 24.90789062 23.95117188 26.01953125 C23.96294273 28.67974383 23.97938601 31.33984365 24 34 C29.5203806 35.07869506 33.76748143 35.18644526 39 33 C42.84271356 30.10195352 45.1834821 26.7559495 46.0625 22 C46.27007001 17.71575497 45.2646961 14.68013116 43 11 C37.28952865 6.36024202 32.15796987 6.53402004 25 7 Z " fill="#030303" transform="translate(254,60)"/>
<path d="M0 0 C3.6815625 -0.0309375 3.6815625 -0.0309375 7.4375 -0.0625 C8.21150146 -0.071604 8.98550293 -0.08070801 9.78295898 -0.09008789 C11.52221717 -0.09724913 13.26145304 -0.05024702 15 0 C16.76723811 1.76723811 16.12762833 4.3031884 16.12939453 6.69726562 C16.13254669 7.91522827 16.13569885 9.13319092 16.13894653 10.38806152 C16.13715675 11.72745805 16.1351058 13.06685424 16.1328125 14.40625 C16.1334856 15.7700604 16.13445567 17.13387068 16.13571167 18.49768066 C16.13718838 21.35930521 16.13503497 24.2208986 16.13037109 27.08251953 C16.12467381 30.75818614 16.12795296 34.43377974 16.13394356 38.10944366 C16.13754991 40.92662104 16.13641025 43.74378098 16.13381577 46.56095886 C16.1331467 47.91660063 16.13397421 49.27224396 16.13629532 50.62788391 C16.13882301 52.51950044 16.13429014 54.41112249 16.12939453 56.30273438 C16.12859894 57.38115601 16.12780334 58.45957764 16.12698364 59.57067871 C16 62 16 62 15 63 C12.64686445 63.07271741 10.29166332 63.08370868 7.9375 63.0625 C6.64714844 63.05347656 5.35679687 63.04445312 4.02734375 63.03515625 C3.02832031 63.02355469 2.02929688 63.01195312 1 63 C0.34 61.68 -0.32 60.36 -1 59 C-1.61875 59.639375 -2.2375 60.27875 -2.875 60.9375 C-7.17354595 63.77454033 -10.89921208 64.20216537 -16 64 C-21.66341853 62.80045649 -26.7991456 60.1823165 -30.15625 55.328125 C-34.87166184 47.44665093 -35.53934801 37.51834263 -33.43359375 28.6015625 C-32.11862437 25.44838986 -30.3122729 22.5133401 -28 20 C-27.34 20 -26.68 20 -26 20 C-26 19.34 -26 18.68 -26 18 C-20.37267145 14.72591793 -15.56420525 12.5874495 -9 14 C-6.36 15.32 -3.72 16.64 -1 18 C-0.67 12.06 -0.34 6.12 0 0 Z M-15.4375 30.875 C-18.25370672 34.70504113 -18.32273441 37.23966746 -18 42 C-16.74360091 44.82689795 -15.67448232 46.47004961 -13.25 48.375 C-9.77450306 49.34041582 -7.45612916 48.98746547 -4 48 C-0.97069064 44.73766684 -0.07583709 42.74573141 0.375 38.3125 C0.24059938 34.86518418 0.24059938 34.86518418 -2 32 C-2.66 32 -3.32 32 -4 32 C-4.33 31.01 -4.66 30.02 -5 29 C-10.64634999 28.42229548 -10.64634999 28.42229548 -15.4375 30.875 Z " fill="#030202" transform="translate(455,155)"/>
<path d="M0 0 C6.84639641 3.60991811 12.4900984 7.3013798 15.4375 14.8125 C15.56640625 18.06640625 15.56640625 18.06640625 15.4375 20.8125 C1.04686523 21.74538629 1.04686523 21.74538629 -2.8671875 19.4765625 C-3.9303756 18.3930263 -4.97232983 17.28810232 -5.98828125 16.16015625 C-8.07783246 14.37133449 -9.46502466 14.31661848 -12.1875 14.25 C-16.02550627 14.55025219 -18.64789844 15.15506916 -21.5625 17.8125 C-24.61461 23.07475862 -25.33294267 27.78103455 -24.5625 33.8125 C-23.2508419 38.15736746 -21.61666495 40.0763872 -17.75 42.25 C-13.93359933 43.90052365 -11.56270923 44.34449503 -7.5625 42.8125 C-6.59207875 41.80315067 -5.63507644 40.78082605 -4.6875 39.75 C-0.87996015 36.11592438 2.88151009 36.33771744 7.875 36.4375 C10.40247582 36.5169856 12.91332726 36.64886815 15.4375 36.8125 C14.73756781 43.490014 13.06877749 47.05118664 8.4375 51.8125 C0.12420103 58.3573636 -8.18355491 59.56278519 -18.5625 58.8125 C-26.62137448 57.65040525 -32.34266137 52.86788834 -37.5625 46.8125 C-42.46113559 38.80709816 -43.62391385 29.2520609 -41.5 20.1875 C-38.56448674 11.0009161 -34.27827511 5.57698393 -25.83203125 0.90625 C-18.73123562 -2.51582018 -7.45521552 -2.60785207 0 0 Z " fill="#030303" transform="translate(348.5625,159.1875)"/>
<path d="M0 0 C5.4383723 6.15186138 6.03590847 11.96144931 5.90234375 19.93359375 C5.10480753 26.46342152 2.18027337 31.01497513 -2.609375 35.42578125 C-10.01714002 41.21780455 -17.41521834 41.34384483 -26.53515625 40.515625 C-29.81171367 39.39838906 -32.02603872 37.87539029 -34.53515625 35.515625 C-35.0971875 34.99613281 -35.65921875 34.47664063 -36.23828125 33.94140625 C-41.21856395 28.75562645 -43.23643832 22.98075299 -43.84765625 15.890625 C-43.25719777 9.51367345 -41.72480608 4.42058089 -37.53515625 -0.484375 C-25.28575664 -9.91446835 -11.68150448 -11.29509339 0 0 Z " fill="#2AA4DC" transform="translate(91.53515625,64.484375)"/>
<path d="M0 0 C6.49449392 3.90819103 10.9848667 8.00805356 13.20703125 15.328125 C14.83778034 21.97656359 14.24494445 28.49283917 11.015625 34.5703125 C7.00707172 40.35923141 1.87508199 44.10544142 -4.79296875 46.328125 C-13.24788601 47.22895332 -19.77166637 46.25930706 -26.79296875 41.328125 C-32.22238689 36.805523 -34.71809973 31.25276196 -35.79296875 24.328125 C-36.02358776 17.8900109 -34.91916651 12.3673033 -30.79296875 7.328125 C-21.94182119 -1.92709669 -11.92413167 -5.93074149 0 0 Z " fill="#2DA4DC" transform="translate(181.79296875,157.671875)"/>
<path d="M0 0 C5.41716169 2.89092105 9.65625736 5.72830684 11.8984375 11.58984375 C12.19814453 12.63591797 12.19814453 12.63591797 12.50390625 13.703125 C12.85001953 14.85748047 12.85001953 14.85748047 13.203125 16.03515625 C14.32605391 20.34806155 14.57083179 23.32028697 13.50390625 27.703125 C3.49097677 28.80258392 -6.44011174 28.80368482 -16.49609375 28.703125 C-14.97661876 32.07061012 -13.97508533 33.31152837 -10.49609375 34.703125 C-9.65046875 33.89875 -8.80484375 33.094375 -7.93359375 32.265625 C-2.38024153 28.18702192 4.88283343 28.79685962 11.50390625 28.703125 C12.12499319 32.97309774 12.30550238 35.40470626 10.00390625 39.1328125 C4.94521435 45.15976964 0.65317649 48.10721539 -7.12890625 49.0078125 C-15.22907628 49.39138601 -21.44266371 47.20867754 -27.87109375 42.328125 C-33.31350446 36.88571429 -34.61627268 30.86615515 -34.74609375 23.390625 C-34.64702647 15.2010628 -32.35193232 9.55896357 -26.49609375 3.703125 C-19.22066226 -3.13903017 -9.09437786 -3.37355693 0 0 Z M-17.49609375 15.703125 C-17.49609375 16.363125 -17.49609375 17.023125 -17.49609375 17.703125 C-13.20609375 17.703125 -8.91609375 17.703125 -4.49609375 17.703125 C-4.82609375 16.383125 -5.15609375 15.063125 -5.49609375 13.703125 C-10.56213987 12.3763034 -13.02438267 13.04139222 -17.49609375 15.703125 Z " fill="#030203" transform="translate(510.49609375,170.296875)"/>
<path d="M0 0 C1.25554688 -0.01417969 2.51109375 -0.02835937 3.8046875 -0.04296875 C7.125 0.1875 7.125 0.1875 10.125 2.1875 C11.18408203 4.41821289 11.18408203 4.41821289 12.1328125 7.16015625 C12.47957031 8.14177734 12.82632813 9.12339844 13.18359375 10.13476562 C13.53550781 11.16279297 13.88742187 12.19082031 14.25 13.25 C14.95868401 15.2833389 15.66950582 17.3159344 16.3828125 19.34765625 C16.6936377 20.25136963 17.00446289 21.15508301 17.32470703 22.08618164 C17.94389479 24.14277321 17.94389479 24.14277321 19.125 25.1875 C19.52332031 24.04152344 19.92164063 22.89554688 20.33203125 21.71484375 C20.86705938 20.18485102 21.40222285 18.65490562 21.9375 17.125 C22.19853516 16.37283203 22.45957031 15.62066406 22.72851562 14.84570312 C27.3886565 1.55567175 27.3886565 1.55567175 30.125 0.1875 C32.28990195 0.09064912 34.45793803 0.05770562 36.625 0.0625 C37.7903125 0.05992188 38.955625 0.05734375 40.15625 0.0546875 C43.125 0.1875 43.125 0.1875 45.125 1.1875 C44.88872793 2.50254059 44.63487576 3.81441966 44.375 5.125 C44.23578125 5.85589844 44.0965625 6.58679688 43.953125 7.33984375 C43.03571621 10.49451833 41.79310458 13.33527541 40.43164062 16.32104492 C38.8130566 19.87182874 37.23852256 23.4412009 35.6640625 27.01171875 C35.0208872 28.46812275 34.37765695 29.92450248 33.734375 31.38085938 C33.40759766 32.12102295 33.08082031 32.86118652 32.74414062 33.6237793 C32.08527255 35.11577892 31.42609654 36.60764261 30.76660156 38.09936523 C29.79417318 40.29898657 28.82271255 42.49903275 27.8515625 44.69921875 C27.37858734 45.76920609 27.37858734 45.76920609 26.89605713 46.86080933 C25.36414024 50.33583768 23.85210822 53.81724786 22.38183594 57.31884766 C22.1095517 57.96529739 21.83726746 58.61174713 21.55673218 59.27778625 C20.82171382 61.02947929 20.09300616 62.78381654 19.36474609 64.53833008 C18.125 67.1875 18.125 67.1875 16.125 69.1875 C10.69667791 70.45889927 5.55290788 70.22688662 0.125 69.1875 C0.83601456 63.95002655 3.25800398 59.59132219 5.68554688 54.97851562 C7.94437967 50.41875999 9.03333686 46.30226556 8.125 41.1875 C7.04479641 38.05582038 5.59417836 35.15249371 4.125 32.1875 C3.28042104 30.31507179 2.44488673 28.43854454 1.6171875 26.55859375 C1.18792969 25.58599609 0.75867188 24.61339844 0.31640625 23.61132812 C-0.11800781 22.62583984 -0.55242188 21.64035156 -1 20.625 C-1.44214844 19.63564453 -1.88429688 18.64628906 -2.33984375 17.62695312 C-4.72377516 12.20008812 -6.77167171 7.02424285 -7.875 1.1875 C-5.94921745 -0.73828255 -2.55464592 0.01306056 0 0 Z " fill="#030202" transform="translate(648.875,86.8125)"/>
<path d="M0 0 C1.95825873 -0.02694851 3.91662226 -0.04637218 5.875 -0.0625 C6.96554687 -0.07410156 8.05609375 -0.08570312 9.1796875 -0.09765625 C12 0 12 0 14 1 C14 1.99 14 2.98 14 4 C15.11375 3.34 16.2275 2.68 17.375 2 C22.95345059 -0.75965753 28.30682266 -1.12952847 34.2734375 0.6953125 C39.11907555 2.8389219 41.56043006 5.32415762 44 10 C44 10.66 44 11.32 44 12 C44.66 12.33 45.32 12.66 46 13 C46.0246519 17.82380802 46.04283693 22.64757967 46.05493164 27.47143555 C46.05997174 29.11369464 46.06680378 30.75594923 46.07543945 32.39819336 C46.08751926 34.75375479 46.09323139 37.10925709 46.09765625 39.46484375 C46.10281754 40.20339096 46.10797882 40.94193817 46.11329651 41.7028656 C46.1134925 43.46898088 46.06194719 45.23497146 46 47 C45 48 45 48 41.62109375 48.09765625 C40.22652923 48.09098369 38.83198257 48.07902532 37.4375 48.0625 C36.72658203 48.05798828 36.01566406 48.05347656 35.28320312 48.04882812 C33.52209987 48.03700864 31.76103964 48.01907263 30 48 C29.98541748 47.21351074 29.97083496 46.42702148 29.95581055 45.61669922 C29.88110637 42.03565042 29.78451793 38.45551089 29.6875 34.875 C29.66494141 33.6375 29.64238281 32.4 29.61914062 31.125 C29.5659668 29.32675781 29.5659668 29.32675781 29.51171875 27.4921875 C29.47244263 25.84259033 29.47244263 25.84259033 29.43237305 24.15966797 C28.94543065 20.60122158 27.75922566 18.1088528 26 15 C21.34947128 14.73067479 21.34947128 14.73067479 17 16 C14.76222613 22.83764239 14.84951903 29.41246962 15.07373047 36.52709961 C15.09064941 37.27483643 15.10756836 38.02257324 15.125 38.79296875 C15.14820313 39.4583667 15.17140625 40.12376465 15.1953125 40.80932617 C15 43 15 43 13 49 C8.05 48.67 3.1 48.34 -2 48 C-2.049623 42.28915661 -2.08582503 36.57844015 -2.10986328 30.86743164 C-2.1198898 28.92665418 -2.13351443 26.9858917 -2.15087891 25.04516602 C-2.17527489 22.24752084 -2.18651681 19.45007629 -2.1953125 16.65234375 C-2.20563507 15.7916478 -2.21595764 14.93095184 -2.22659302 14.04417419 C-2.22752775 8.96820807 -1.64042491 4.81058863 0 0 Z " fill="#030203" transform="translate(535,87)"/>
<path d="M0 0 C2.66046975 1.44680185 5.20758927 2.95755572 7.71875 4.6484375 C7.71875 5.3084375 7.71875 5.9684375 7.71875 6.6484375 C8.37875 6.6484375 9.03875 6.6484375 9.71875 6.6484375 C14.65002481 14.92025331 16.19473788 22.25249 13.96875 31.8984375 C10.6203171 39.26498987 8.10329766 43.09497096 0.71875 46.6484375 C-7.49947064 49.676203 -14.38972172 49.14026417 -22.28125 45.6484375 C-27.86051761 42.55736979 -31.81885372 38.78129655 -34 32.6171875 C-36.14586576 24.59842596 -35.59837348 16.68825961 -31.50390625 9.39453125 C-29.47362015 6.49504918 -27.18095095 4.65592277 -24.28125 2.6484375 C-23.43626953 2.05869141 -23.43626953 2.05869141 -22.57421875 1.45703125 C-15.68185779 -2.70740579 -7.39670565 -3.04673828 0 0 Z M-16.71875 15.8359375 C-18.69569405 19.39443678 -19.79656288 21.6107881 -18.76953125 25.671875 C-17.15268974 30.43638639 -17.15268974 30.43638639 -13.28125 33.6484375 C-9.86625409 34.31551298 -9.86625409 34.31551298 -6.28125 33.6484375 C-3.27726655 31.09185584 -1.66065029 29.50207893 -0.87109375 25.64453125 C-0.67639883 21.18347806 -1.53672281 18.13187585 -4.28125 14.6484375 C-8.77605816 12.40103342 -13.09199085 12.58115364 -16.71875 15.8359375 Z " fill="#030203" transform="translate(403.28125,170.3515625)"/>
<path d="M0 0 C5.13267767 2.89797308 7.89774815 6.74027796 9.6875 12.3125 C9.85246802 14.99260949 9.92128795 17.5624358 9.8828125 20.23828125 C9.8799826 20.98587204 9.87715271 21.73346283 9.87423706 22.50370789 C9.86309469 24.8776388 9.83800162 27.25118425 9.8125 29.625 C9.80246249 31.2402289 9.79333799 32.85546376 9.78515625 34.47070312 C9.76488131 38.41823461 9.72572275 42.36493882 9.6875 46.3125 C4.4075 46.3125 -0.8725 46.3125 -6.3125 46.3125 C-6.36857422 43.24195313 -6.36857422 43.24195313 -6.42578125 40.109375 C-6.47446602 38.12025426 -6.52325395 36.13113457 -6.57495117 34.14208984 C-6.60814193 32.76297333 -6.63619217 31.38372289 -6.65893555 30.00439453 C-6.69258642 28.01827694 -6.74644729 26.03253441 -6.80078125 24.046875 C-6.82696533 22.85288086 -6.85314941 21.65888672 -6.88012695 20.42871094 C-7.34447558 17.08204474 -7.88261186 15.63230637 -10.3125 13.3125 C-13.8125 12.64583333 -13.8125 12.64583333 -17.3125 13.3125 C-20.58123461 16.14540333 -20.77502331 19.15721804 -21.3125 23.3125 C-21.56984066 27.26838158 -21.72620833 31.22622678 -21.875 35.1875 C-21.91818359 36.25742188 -21.96136719 37.32734375 -22.00585938 38.4296875 C-22.11142817 41.05717754 -22.21353791 43.68475422 -22.3125 46.3125 C-23.85180561 46.53761584 -25.39418633 46.74174045 -26.9375 46.9375 C-27.79601562 47.05351562 -28.65453125 47.16953125 -29.5390625 47.2890625 C-32.81568581 47.31675227 -35.27146166 46.48075813 -38.3125 45.3125 C-38.33777062 38.92212769 -38.35533317 32.53176817 -38.36743164 26.14135742 C-38.37247308 23.96557127 -38.37930607 21.78978853 -38.38793945 19.61401367 C-38.40001338 16.49396933 -38.40573005 13.37396962 -38.41015625 10.25390625 C-38.41531754 9.27474747 -38.42047882 8.29558868 -38.42579651 7.28675842 C-38.42587204 6.38590012 -38.42594757 5.48504181 -38.42602539 4.55688477 C-38.428246 3.75968521 -38.43046661 2.96248566 -38.43275452 2.14112854 C-38.3125 0.3125 -38.3125 0.3125 -37.3125 -0.6875 C-34.78200598 -0.76063567 -32.27945163 -0.77997527 -29.75 -0.75 C-29.03908203 -0.74548828 -28.32816406 -0.74097656 -27.59570312 -0.73632812 C-25.83459987 -0.72450864 -24.07353964 -0.70657263 -22.3125 -0.6875 C-22.3125 0.3025 -22.3125 1.2925 -22.3125 2.3125 C-21.76722656 2.02375 -21.22195313 1.735 -20.66015625 1.4375 C-13.50988174 -2.08263514 -7.46453685 -3.38668801 0 0 Z " fill="#030203" transform="translate(462.3125,88.6875)"/>
<path d="M0 0 C5.49949071 3.00487637 8.84499211 6.00734542 11.08984375 11.88671875 C10.83984375 14.82421875 10.83984375 14.82421875 10.08984375 16.88671875 C6.78984375 17.21671875 3.48984375 17.54671875 0.08984375 17.88671875 C1.40984375 18.21671875 2.72984375 18.54671875 4.08984375 18.88671875 C4.08984375 19.54671875 4.08984375 20.20671875 4.08984375 20.88671875 C4.66734375 21.07234375 5.24484375 21.25796875 5.83984375 21.44921875 C9.11364708 23.54081532 10.68938358 26.3569875 12.08984375 29.88671875 C12.68136358 34.10129756 12.43194767 36.2025109 10.52734375 40.01171875 C5.99321045 45.35967084 2.45739135 48.02929397 -4.66015625 48.88671875 C-11.39751683 49.1568886 -18.48302579 48.73693747 -23.859375 44.265625 C-26.38110586 41.42638808 -28.53274963 38.44330599 -29.91015625 34.88671875 C-29.53515625 32.63671875 -29.53515625 32.63671875 -28.91015625 30.88671875 C-26.4511697 30.80594912 -23.99481883 30.74634732 -21.53515625 30.69921875 C-20.83648438 30.67408203 -20.1378125 30.64894531 -19.41796875 30.62304688 C-17.38671875 30.59375 -17.38671875 30.59375 -13.91015625 30.88671875 C-13.25015625 31.87671875 -12.59015625 32.86671875 -11.91015625 33.88671875 C-9.94653761 34.46420678 -9.94653761 34.46420678 -7.78515625 34.57421875 C-6.50640625 34.67734375 -5.22765625 34.78046875 -3.91015625 34.88671875 C-5.5639389 32.12286281 -6.48332519 31.03149186 -9.58203125 29.98046875 C-10.5978125 29.78453125 -11.61359375 29.58859375 -12.66015625 29.38671875 C-24.02001689 26.84244004 -24.02001689 26.84244004 -27.07421875 22.06640625 C-28.03655332 19.55714135 -28.17669015 17.63184443 -28.16015625 14.94921875 C-28.1653125 14.11519531 -28.17046875 13.28117188 -28.17578125 12.421875 C-27.76218595 8.47447277 -26.91963081 5.83066961 -23.984375 3.0859375 C-16.31026663 -1.7747498 -8.69381372 -3.32582136 0 0 Z M-12.91015625 12.88671875 C-12.91015625 13.54671875 -12.91015625 14.20671875 -12.91015625 14.88671875 C-12.25015625 14.88671875 -11.59015625 14.88671875 -10.91015625 14.88671875 C-10.58015625 15.87671875 -10.25015625 16.86671875 -9.91015625 17.88671875 C-8.59015625 17.88671875 -7.27015625 17.88671875 -5.91015625 17.88671875 C-5.58015625 16.23671875 -5.25015625 14.58671875 -4.91015625 12.88671875 C-7.55015625 12.88671875 -10.19015625 12.88671875 -12.91015625 12.88671875 Z " fill="#030203" transform="translate(591.91015625,170.11328125)"/>
<path d="M0 0 C0 21.78 0 43.56 0 66 C4.29 66.33 8.58 66.66 13 67 C14 68 14 68 14 74 C-0.52 74 -15.04 74 -30 74 C-30.33 72.68 -30.66 71.36 -31 70 C-30.34 69.01 -29.68 68.02 -29 67 C-23.06 66.01 -23.06 66.01 -17 65 C-17 47.84 -17 30.68 -17 13 C-20.3 13 -23.6 13 -27 13 C-27.66 12.67 -28.32 12.34 -29 12 C-29 10.02 -29 8.04 -29 6 C-25.4832974 4.98507342 -21.96107048 3.99079499 -18.4375 3 C-17.44685547 2.71382813 -16.45621094 2.42765625 -15.43554688 2.1328125 C-14.46552734 1.86210938 -13.49550781 1.59140625 -12.49609375 1.3125 C-11.61107178 1.06113281 -10.7260498 0.80976562 -9.81420898 0.55078125 C-7 0 -7 0 0 0 Z " fill="#030203" transform="translate(362,62)"/>
<path d="M0 0 C0.51953125 2.1796875 0.51953125 2.1796875 0.8125 4.875 C0.92207031 5.75929688 1.03164063 6.64359375 1.14453125 7.5546875 C1 10 1 10 -0.3515625 11.71484375 C-2.21716424 13.16930577 -4.08388079 14.6124654 -6 16 C-4.02 16.66 -2.04 17.32 0 18 C0 22.29 0 26.58 0 31 C-2.97 31.495 -2.97 31.495 -6 32 C-5.99214478 33.3929126 -5.99214478 33.3929126 -5.98413086 34.81396484 C-5.96710407 38.25423805 -5.95455727 41.69446659 -5.94506836 45.13476562 C-5.94003486 46.62468166 -5.93320758 48.11459274 -5.92456055 49.60449219 C-5.91245195 51.74415304 -5.90676193 53.88374868 -5.90234375 56.0234375 C-5.89448853 57.95582275 -5.89448853 57.95582275 -5.88647461 59.92724609 C-6 63 -6 63 -7 65 C-12.28 65 -17.56 65 -23 65 C-23 53.78 -23 42.56 -23 31 C-24.65 30.67 -26.3 30.34 -28 30 C-28 26.04 -28 22.08 -28 18 C-26.35 17.67 -24.7 17.34 -23 17 C-22.96261719 16.40832031 -22.92523438 15.81664063 -22.88671875 15.20703125 C-22.15854411 6.45465762 -22.15854411 6.45465762 -19 3 C-13.41562139 -0.45753788 -6.31126018 -3.15563009 0 0 Z " fill="#030203" transform="translate(504,70)"/>
<path d="M0 0 C1.06347656 -0.00515625 2.12695312 -0.0103125 3.22265625 -0.015625 C5.9375 0.25 5.9375 0.25 7.9375 2.25 C8.1328125 4.6328125 8.1328125 4.6328125 8.0625 7.375 C8.04445313 8.28507812 8.02640625 9.19515625 8.0078125 10.1328125 C7.98460937 10.83148438 7.96140625 11.53015625 7.9375 12.25 C9.608125 11.9715625 9.608125 11.9715625 11.3125 11.6875 C14.9375 11.25 14.9375 11.25 16.9375 12.25 C18.2862039 16.41872114 17.75485063 19.99977672 16.9375 24.25 C16.6075 24.58 16.2775 24.91 15.9375 25.25 C13.2975 25.25 10.6575 25.25 7.9375 25.25 C8.2675 31.52 8.5975 37.79 8.9375 44.25 C12.4025 44.745 12.4025 44.745 15.9375 45.25 C16.9375 46.25 16.9375 46.25 17.03515625 49.19140625 C17.02355469 50.38636719 17.01195312 51.58132812 17 52.8125 C16.99097656 54.01003906 16.98195313 55.20757812 16.97265625 56.44140625 C16.96105469 57.36824219 16.94945312 58.29507813 16.9375 59.25 C10.3978318 60.241671 5.19601763 60.58368454 -1.0625 58.25 C-5.01803742 55.08557006 -7.22217176 51.94492831 -9.0625 47.25 C-9.4166253 43.61542282 -9.34637029 40.02224467 -9.25 36.375 C-9.23646484 35.40046875 -9.22292969 34.4259375 -9.20898438 33.421875 C-9.17381962 31.03067137 -9.1246067 28.64063025 -9.0625 26.25 C-10.3825 25.92 -11.7025 25.59 -13.0625 25.25 C-14.34821429 16.82142857 -14.34821429 16.82142857 -13.0625 12.25 C-11.7425 11.92 -10.4225 11.59 -9.0625 11.25 C-9.09730469 10.62351562 -9.13210938 9.99703125 -9.16796875 9.3515625 C-9.19503906 8.53429687 -9.22210937 7.71703125 -9.25 6.875 C-9.28480469 6.06289062 -9.31960938 5.25078125 -9.35546875 4.4140625 C-9.25878906 3.69992188 -9.16210938 2.98578125 -9.0625 2.25 C-5.58864567 -0.06590289 -4.09819994 -0.01991835 0 0 Z " fill="#030203" transform="translate(623.0625,75.75)"/>
<path d="M0 0 C1.0725 0.01417969 2.145 0.02835938 3.25 0.04296875 C4.3225 0.04941406 5.395 0.05585938 6.5 0.0625 C9.25 0.23046875 9.25 0.23046875 11.25 1.23046875 C11.58 2.22046875 11.91 3.21046875 12.25 4.23046875 C15.2219385 3.10595148 17.58440687 2.00753084 20.25 0.23046875 C22.875 0.04296875 22.875 0.04296875 25.25 0.23046875 C26.25 1.23046875 26.25 1.23046875 26.34765625 4.828125 C26.3409822 6.31643742 26.32902183 7.80473307 26.3125 9.29296875 C26.30798828 10.05158203 26.30347656 10.81019531 26.29882812 11.59179688 C26.2870068 13.47138746 26.26907078 15.35093774 26.25 17.23046875 C22.29 17.89046875 18.33 18.55046875 14.25 19.23046875 C14.25 19.89046875 14.25 20.55046875 14.25 21.23046875 C13.59 21.23046875 12.93 21.23046875 12.25 21.23046875 C12.25785522 22.44947876 12.25785522 22.44947876 12.26586914 23.69311523 C12.28656994 27.35139197 12.29963803 31.00965642 12.3125 34.66796875 C12.32087891 35.94736328 12.32925781 37.22675781 12.33789062 38.54492188 C12.34272461 40.36733398 12.34272461 40.36733398 12.34765625 42.2265625 C12.35551147 43.91543579 12.35551147 43.91543579 12.36352539 45.63842773 C12.25 48.23046875 12.25 48.23046875 11.25 49.23046875 C8.73863896 49.33021907 6.26096585 49.36929058 3.75 49.35546875 C3.04746094 49.35933594 2.34492187 49.36320312 1.62109375 49.3671875 C-3.62338622 49.35708253 -3.62338622 49.35708253 -4.75 48.23046875 C-4.85331927 46.79856014 -4.88849886 45.36164072 -4.89526367 43.92602539 C-4.90164352 43.01160172 -4.90802338 42.09717804 -4.91459656 41.15504456 C-4.91570938 40.1602861 -4.9168222 39.16552765 -4.91796875 38.140625 C-4.92129715 37.12576523 -4.92462555 36.11090546 -4.92805481 35.06529236 C-4.9331285 32.91405695 -4.935463 30.76281365 -4.93530273 28.61157227 C-4.93748834 25.31057839 -4.95563707 22.009919 -4.97460938 18.70898438 C-4.97754331 16.62369907 -4.9795281 14.53841216 -4.98046875 12.453125 C-4.98765427 11.46039078 -4.99483978 10.46765656 -5.00224304 9.44483948 C-4.9976281 8.06847572 -4.9976281 8.06847572 -4.99291992 6.66430664 C-4.99434494 5.85457901 -4.99576996 5.04485138 -4.99723816 4.21058655 C-4.57532366 0.8314949 -3.24499627 0.27195281 0 0 Z " fill="#020102" transform="translate(533.75,168.76953125)"/>
<path d="M0 0 C1.39456452 0.00667256 2.78911118 0.01863093 4.18359375 0.03515625 C4.89451172 0.03966797 5.60542969 0.04417969 6.33789062 0.04882812 C8.09899388 0.06064761 9.86005411 0.07858362 11.62109375 0.09765625 C12.55248851 3.25875888 12.74766356 6.0953169 12.75048828 9.38525391 C12.75364044 10.43959625 12.7567926 11.4939386 12.76004028 12.58023071 C12.75801605 13.71262177 12.75599182 14.84501282 12.75390625 16.01171875 C12.75534134 17.76069962 12.75534134 17.76069962 12.75680542 19.54501343 C12.75748563 22.00787408 12.75564245 24.47073654 12.75146484 26.93359375 C12.74610477 30.71488439 12.75142021 34.49605676 12.7578125 38.27734375 C12.75715188 40.66796901 12.75587105 43.0585942 12.75390625 45.44921875 C12.75593048 46.58565826 12.75795471 47.72209778 12.76004028 48.89297485 C12.75688812 49.94101288 12.75373596 50.9890509 12.75048828 52.06884766 C12.74969269 52.99388092 12.74889709 53.91891418 12.74807739 54.87197876 C12.62109375 57.09765625 12.62109375 57.09765625 11.62109375 59.09765625 C9.14185574 59.1245072 6.66290535 59.14442172 4.18359375 59.16015625 C3.47654297 59.16853516 2.76949219 59.17691406 2.04101562 59.18554688 C0.23415816 59.19419213 -1.57278228 59.14985636 -3.37890625 59.09765625 C-5.09713715 57.37942535 -4.50644946 55.11167876 -4.50830078 52.76757812 C-4.51145294 51.62969849 -4.5146051 50.49181885 -4.51785278 49.31945801 C-4.51582855 48.08095093 -4.51380432 46.84244385 -4.51171875 45.56640625 C-4.51267548 44.30501831 -4.5136322 43.04363037 -4.51461792 41.74401855 C-4.5153 39.07068487 -4.51394154 36.39744188 -4.50927734 33.72412109 C-4.50358006 30.29058934 -4.50685926 26.85713575 -4.51284981 23.42360687 C-4.51732387 20.15870382 -4.51419508 16.89381032 -4.51171875 13.62890625 C-4.51374298 12.39039917 -4.51576721 11.15189209 -4.51785278 9.87585449 C-4.51470062 8.73797485 -4.51154846 7.60009521 -4.50830078 6.42773438 C-4.50750519 5.42037231 -4.50670959 4.41301025 -4.50588989 3.37512207 C-4.30097433 -0.30006144 -3.8065692 0.11001645 0 0 Z " fill="#030203" transform="translate(404.37890625,75.90234375)"/>
<path d="M0 0 C4.99877131 2.81748928 8.60533165 6.44099496 10.4375 11.9375 C10.80576224 17.55349916 10.65306007 21.11415989 7.4375 25.9375 C3.36707933 29.83094585 -0.09992971 32.89094443 -5.88671875 32.96875 C-11.45035817 32.63609592 -15.31040813 31.78463074 -19.5625 27.9375 C-23.1795343 23.17824434 -24.28630685 19.41866454 -24.00390625 13.43359375 C-23.10845496 8.36993557 -20.83353642 4.61939726 -16.6953125 1.5546875 C-10.9967541 -1.6161057 -6.27917245 -1.87273564 0 0 Z " fill="#30A3D4" transform="translate(177.5625,65.0625)"/>
<path d="M0 0 C5.00347644 2.45625207 8.74034105 5.76087699 10.79296875 11.0390625 C12.16307019 15.87178395 12.25655893 19.52872879 10.18359375 24.14453125 C7.5200542 28.32004705 3.77092364 30.95560913 -0.4375 33.4375 C-5.66763453 34.58557831 -9.65612363 33.72362574 -14.25 31.25 C-17.54156962 28.55689759 -20.09109876 25.81780248 -22 22 C-22.5238576 16.74424835 -22.66505372 12.35473905 -20.3125 7.5625 C-13.99448295 0.56145408 -9.25933963 -0.94295962 0 0 Z " fill="#2EA0D1" transform="translate(78,163)"/>
<path d="M0 0 C2.49609375 -0.36328125 2.49609375 -0.36328125 5.4375 -0.3125 C6.40558594 -0.30863281 7.37367188 -0.30476563 8.37109375 -0.30078125 C11 0 11 0 14 2 C15.16746422 7.27205356 15.14660095 12.55270955 15.1328125 17.92578125 C15.13424759 19.16898384 15.13424759 19.16898384 15.13571167 20.43730164 C15.13638826 22.17605669 15.13457058 23.91481434 15.13037109 25.65356445 C15.12498114 28.32183423 15.13035116 30.98993829 15.13671875 33.65820312 C15.13605854 35.35156287 15.13477857 37.04492252 15.1328125 38.73828125 C15.13483673 39.53720291 15.13686096 40.33612457 15.13894653 41.15925598 C15.11498308 46.77003384 15.11498308 46.77003384 14 49 C10.97816773 50.06373916 8.05911559 50.16373794 4.875 50.1875 C4.00617187 50.20167969 3.13734375 50.21585938 2.2421875 50.23046875 C0 50 0 50 -2 48 C-2.25396729 46.07130432 -2.25396729 46.07130432 -2.25878906 43.68969727 C-2.26509338 42.79859756 -2.27139771 41.90749786 -2.27789307 40.98939514 C-2.2738446 40.02480881 -2.26979614 39.06022247 -2.265625 38.06640625 C-2.26753845 37.07752914 -2.2694519 36.08865204 -2.27142334 35.06980896 C-2.27278598 32.97581732 -2.26908408 30.88181726 -2.26074219 28.7878418 C-2.25005519 25.57907133 -2.26062909 22.37086221 -2.2734375 19.16210938 C-2.2721157 17.13020709 -2.26955287 15.09830516 -2.265625 13.06640625 C-2.26967346 12.10384415 -2.27372192 11.14128204 -2.27789307 10.14955139 C-2.27158875 9.25529953 -2.26528442 8.36104767 -2.25878906 7.43969727 C-2.25719788 6.65297134 -2.25560669 5.86624542 -2.25396729 5.05567932 C-2 3 -2 3 0 0 Z " fill="#020102" transform="translate(590,86)"/>
<path d="M0 0 C2.31243792 -0.02685412 4.6249627 -0.04632841 6.9375 -0.0625 C8.22527344 -0.07410156 9.51304687 -0.08570312 10.83984375 -0.09765625 C14 0 14 0 15 1 C15.8836204 5.91713343 16.12848809 10.66711139 16.1328125 15.65625 C16.13424759 16.7151947 16.13424759 16.7151947 16.13571167 17.79553223 C16.13638768 19.27791433 16.13457412 20.76029949 16.13037109 22.24267578 C16.12501455 24.49388363 16.13033584 26.74489201 16.13671875 28.99609375 C16.13605787 30.44531293 16.13477649 31.894532 16.1328125 33.34375 C16.13168457 34.64505859 16.13055664 35.94636719 16.12939453 37.28710938 C16 41 16 41 15 48 C9.72 48 4.44 48 -1 48 C-1.02469323 41.64624313 -1.04285678 35.29251411 -1.05493164 28.9387207 C-1.05996472 26.77660638 -1.06679169 24.61449547 -1.07543945 22.45239258 C-1.08754979 19.34715941 -1.09323852 16.2419712 -1.09765625 13.13671875 C-1.10281754 12.16788254 -1.10797882 11.19904633 -1.11329651 10.20085144 C-1.11337204 9.3001442 -1.11344757 8.39943695 -1.11352539 7.47143555 C-1.115746 6.67867722 -1.11796661 5.88591888 -1.12025452 5.06913757 C-1 3 -1 3 0 0 Z " fill="#030102" transform="translate(510,87)"/>
<path d="M0 0 C1.35182904 2.70365807 0.63069913 4.07355606 0 7 C-1.14909763 18.16266269 1.69000529 27.82384768 8.25 36.9375 C14.76669922 44.6583719 23.73871101 49.66266506 33.77658653 50.81246948 C37.56692181 51.1321597 41.34232958 51.12187259 45.14379883 51.09765625 C46.02152954 51.09619598 46.89926025 51.09473572 47.80358887 51.0932312 C49.69850547 51.08944462 51.5934186 51.0833488 53.4883213 51.07516479 C56.5060306 51.06229096 59.52369536 51.05585615 62.54142761 51.05102539 C70.04444673 51.0377173 77.54742395 51.01366754 85.05041504 50.98962402 C91.38557906 50.96970137 97.72072635 50.95413415 104.05591393 50.94406128 C106.99505528 50.93768858 109.9341261 50.92517684 112.87324524 50.91235352 C121.75276521 50.88769792 130.60579352 50.98582419 139.4753418 51.43359375 C140.24440511 51.47153549 141.01346842 51.50947723 141.80583668 51.54856873 C158.50087747 52.50072364 174.13131379 59.58683455 185.69921875 71.79296875 C196.4643925 85.04458683 201.09573645 101.12144436 200 118 C199.70346842 119.67360626 199.38376973 121.34421931 199 123 C198.67 123 198.34 123 198 123 C198.03480469 121.94941406 198.06960937 120.89882812 198.10546875 119.81640625 C198.2874741 111.98270932 198.28243589 105.26611944 195 98 C194.60554688 96.98099609 194.60554688 96.98099609 194.203125 95.94140625 C192.92181155 92.28532469 192.92181155 92.28532469 190 90 C189.4954642 88.35184971 188.99923237 86.70048973 188.5546875 85.03515625 C186.82489278 78.68851508 185.12733353 74.41189164 180 70 C179.49984375 69.5565625 178.9996875 69.113125 178.484375 68.65625 C175.81637101 66.33858996 173.26384327 64.38085677 170 63 C170 62.34 170 61.68 170 61 C167.94427438 60.2911291 165.88480009 59.59240778 163.81463623 58.92687988 C161.97868368 58.32228755 160.15702695 57.67182366 158.35577393 56.97058105 C147.08749139 53.04377952 135.7736268 53.4594 123.97231293 53.5141449 C120.10363323 53.53155714 116.23569079 53.52381848 112.36700439 53.5098877 C104.16129545 53.4833327 95.95573334 53.48983095 87.75 53.5 C78.220218 53.5117954 68.69085876 53.51031887 59.16110992 53.47593689 C55.3621411 53.46887139 51.56375436 53.48547928 47.76483154 53.50305176 C45.42492362 53.49734234 43.08501805 53.4905243 40.74511719 53.48242188 C39.69967743 53.49373642 38.65423767 53.50505096 37.57711792 53.51670837 C28.16243825 53.43908977 20.53476206 50.69293133 13 45 C12.15501953 44.42378906 12.15501953 44.42378906 11.29296875 43.8359375 C5.43157679 39.46862584 2.86207109 33.5836496 0 27 C-0.38027344 26.25105469 -0.76054687 25.50210938 -1.15234375 24.73046875 C-2.42634418 20.62666092 -2.28882181 16.64539956 -2.25 12.375 C-2.25773437 11.51648438 -2.26546875 10.65796875 -2.2734375 9.7734375 C-2.27085938 8.9484375 -2.26828125 8.1234375 -2.265625 7.2734375 C-2.26336914 6.52497559 -2.26111328 5.77651367 -2.25878906 5.00537109 C-2 3 -2 3 0 0 Z " fill="#225E86" transform="translate(31,69)"/>
<path d="M0 0 C5.4383723 6.15186138 6.03590847 11.96144931 5.90234375 19.93359375 C5.10480753 26.46342152 2.18027337 31.01497513 -2.609375 35.42578125 C-9.99520558 41.20065433 -17.43424964 41.39361703 -26.53515625 40.515625 C-29.86998844 39.21089546 -31.75309579 37.84347151 -34.53515625 35.515625 C-34.53515625 35.185625 -34.53515625 34.855625 -34.53515625 34.515625 C-30.36019292 34.25468979 -27.50217771 34.38084644 -23.66015625 36.078125 C-19.12554583 37.9808831 -15.27276579 37.42586017 -10.53515625 36.515625 C-10.53515625 35.855625 -10.53515625 35.195625 -10.53515625 34.515625 C-9.87515625 34.515625 -9.21515625 34.515625 -8.53515625 34.515625 C-8.53515625 35.175625 -8.53515625 35.835625 -8.53515625 36.515625 C-6.88515625 35.855625 -5.23515625 35.195625 -3.53515625 34.515625 C-3.53515625 33.855625 -3.53515625 33.195625 -3.53515625 32.515625 C-2.87515625 32.185625 -2.21515625 31.855625 -1.53515625 31.515625 C-0.48162782 29.20596652 0.52203471 26.8726476 1.46484375 24.515625 C2.12484375 24.515625 2.78484375 24.515625 3.46484375 24.515625 C2.97357446 18.15002927 2.46828628 11.82297807 1.46484375 5.515625 C0.80484375 5.515625 0.14484375 5.515625 -0.53515625 5.515625 C-1.21578125 4.401875 -1.21578125 4.401875 -1.91015625 3.265625 C-5.88702468 -0.90061812 -10.95856957 -2.31753485 -16.53515625 -3.484375 C-18.68591058 -3.22457949 -18.68591058 -3.22457949 -20.53515625 -2.484375 C-25.88815892 -0.80500161 -30.97252113 0.03630497 -36.53515625 0.515625 C-38.1276102 4.03390128 -38.77777007 6.74259852 -38.73046875 10.59765625 C-38.72402344 11.52900391 -38.71757813 12.46035156 -38.7109375 13.41992188 C-38.69417969 14.37962891 -38.67742188 15.33933594 -38.66015625 16.328125 C-38.64662109 17.79668945 -38.64662109 17.79668945 -38.6328125 19.29492188 C-38.60932807 21.70207561 -38.57648465 24.10872243 -38.53515625 26.515625 C-37.54515625 26.845625 -36.55515625 27.175625 -35.53515625 27.515625 C-35.53515625 29.495625 -35.53515625 31.475625 -35.53515625 33.515625 C-40.3240576 29.50330225 -42.19213047 25.60121054 -43.53515625 19.515625 C-44.07721971 13.22768883 -42.81260675 8.18160865 -40.09765625 2.515625 C-35.55123567 -2.80701373 -29.68128588 -6.54605564 -22.97265625 -8.546875 C-14.03037542 -8.38428808 -6.5413586 -6.32497778 0 0 Z " fill="#3891B8" transform="translate(91.53515625,64.484375)"/>
<path d="M0 0 C0 0.99 0 1.98 0 3 C-1.13417513 4.13417513 -2.27396565 5.26315206 -3.4375 6.3671875 C-13.12686066 16.49256939 -17.93130007 29.49163421 -18.25 43.375 C-17.93622491 56.49818166 -14.64176236 68.24492704 -7 79 C-7 79.66 -7 80.32 -7 81 C-6.34 81 -5.68 81 -5 81 C-4.175 82.010625 -3.35 83.02125 -2.5 84.0625 C4.44632884 92.34788018 13.72014188 97.02816191 24 100 C27.66714849 100.25063732 27.66714849 100.25063732 31 100 C32.34925691 100.290605 33.69070232 100.61862569 35.02481079 100.97232056 C40.33200912 102.19926048 45.42493806 102.27845855 50.85302734 102.25537109 C51.89981155 102.25899155 52.94659576 102.262612 54.02510071 102.26634216 C56.28396106 102.27320215 58.54283786 102.27574802 60.80170822 102.27439499 C64.3844892 102.27342435 67.96697461 102.28643566 71.54971313 102.30337524 C81.73136125 102.34948568 91.91297751 102.37424774 102.09472656 102.38085938 C108.33627588 102.38588827 114.57751443 102.41020499 120.81895828 102.44618607 C123.18785355 102.45594855 125.55679174 102.45833554 127.92570114 102.45301437 C131.24686417 102.4459029 134.56710736 102.46330988 137.88818359 102.48583984 C139.33649818 102.47358116 139.33649818 102.47358116 140.81407166 102.46107483 C147.7069951 102.54372542 153.79300246 103.90940032 160 107 C160.33 107.66 160.66 108.32 161 109 C160.33613281 108.79503906 159.67226562 108.59007812 158.98828125 108.37890625 C158.10527344 108.10949219 157.22226563 107.84007812 156.3125 107.5625 C155.44238281 107.29566406 154.57226562 107.02882813 153.67578125 106.75390625 C149.45352044 105.56427656 145.52872852 104.87580335 141.13813782 104.85523987 C140.18650253 104.84834137 139.23486725 104.84144287 138.25439453 104.83433533 C136.70594849 104.83041527 136.70594849 104.83041527 135.1262207 104.82641602 C134.02964645 104.819729 132.9330722 104.81304199 131.80326843 104.80615234 C129.4237459 104.79211457 127.04421 104.78021647 124.66466713 104.77020454 C120.89351693 104.75376561 117.12246524 104.730525 113.35136414 104.70530701 C102.62955513 104.63462071 91.90770945 104.57446792 81.18579102 104.52319336 C74.62473791 104.49173451 68.06378851 104.45001602 61.5028286 104.40299797 C59.00750966 104.38702885 56.51216471 104.37468392 54.01680946 104.36609077 C50.51800762 104.35387051 47.01946903 104.32969151 43.52075195 104.30297852 C42.49857574 104.30238937 41.47639954 104.30180023 40.42324829 104.30119324 C23.565962 104.13155597 8.87400026 98.46025621 -3.5625 87 C-15.60741421 74.44970478 -20.65130041 58.87226769 -20.47094727 41.74023438 C-19.93896205 26.10523116 -13.3142344 11.89629434 -2 1 C-1.34 0.67 -0.68 0.34 0 0 Z " fill="#2A597A" transform="translate(32,36)"/>
<path d="M0 0 C1.89105469 -0.00386719 1.89105469 -0.00386719 3.8203125 -0.0078125 C6.875 0.125 6.875 0.125 7.875 1.125 C7.99656945 2.7639293 8.05469974 4.40764626 8.0859375 6.05078125 C8.35081635 29.57845954 8.35081635 29.57845954 20.04296875 49.30078125 C21.94283563 50.97871678 23.86371628 52.58335613 25.875 54.125 C23.875 55.125 23.875 55.125 21.73828125 54.8671875 C17.74916084 53.51100874 14.92938286 51.9182668 12.73925781 48.19335938 C6.8515435 35.38248613 5.85830784 22.15991412 6.08276367 8.24365234 C6.01316117 5.82215706 6.01316117 5.82215706 3.875 3.125 C1.68045319 2.54506301 1.68045319 2.54506301 -0.75 2.4375 C-1.56726563 2.37175781 -2.38453125 2.30601562 -3.2265625 2.23828125 C-3.85304688 2.20089844 -4.47953125 2.16351563 -5.125 2.125 C-5.455 3.445 -5.785 4.765 -6.125 6.125 C-6.125 5.465 -6.125 4.805 -6.125 4.125 C-6.785 4.125 -7.445 4.125 -8.125 4.125 C-8.125 12.045 -8.125 19.965 -8.125 28.125 C-7.465 28.455 -6.805 28.785 -6.125 29.125 C-6.228125 30.1975 -6.33125 31.27 -6.4375 32.375 C-6.42083598 41.77350524 -0.99926902 50.17580031 4.875 57.125 C5.31328125 57.70636719 5.7515625 58.28773438 6.203125 58.88671875 C10.53387747 64.42460624 16.1144037 68.17868403 21.875 72.125 C20.885 72.62 20.885 72.62 19.875 73.125 C4.52544562 63.74471677 -4.11515807 51.41102484 -9.125 34.125 C-9.95892921 29.90528139 -10.2431231 25.9308502 -10.22265625 21.6328125 C-10.21943359 20.43398437 -10.21621094 19.23515625 -10.21289062 18 C-10.20451172 16.7625 -10.19613281 15.525 -10.1875 14.25 C-10.18298828 12.98929688 -10.17847656 11.72859375 -10.17382812 10.4296875 C-10.1620796 7.32807614 -10.14565167 4.22656275 -10.125 1.125 C-6.59115441 -0.05294853 -3.72222447 -0.00764317 0 0 Z " fill="#275F89" transform="translate(122.125,158.875)"/>
<path d="M0 0 C3.19601395 1.38009693 4.62619647 2.35433936 6.375 5.375 C7.39750576 9.66952418 6.59868265 11.98684474 4.375 15.75 C1.23906498 18.72088581 -0.71900783 19 -5 19 C-8.62009713 17.43677624 -11.22157442 15.55685115 -13 12 C-13.08503584 7.32302874 -12.49307864 5.53894642 -9.3125 2.0625 C-5.67023225 -0.20532709 -4.18641186 -0.71258074 0 0 Z " fill="#040203" transform="translate(520,67)"/>
<path d="M0 0 C2.1875 1.9375 2.1875 1.9375 3.25 5.75 C3.4335679 8.95355602 3.0408534 10.31078226 1.8125 13.4375 C-1.04953071 16.16324354 -1.57123831 16.33872081 -5.3125 16.4375 C-8.62857976 16.30122275 -10.9545469 15.63615325 -13.8125 13.9375 C-15.97687561 11.25779686 -15.89047856 9.10421214 -15.5625 5.8125 C-14.77685035 1.75331014 -14.33811018 0.97273548 -11.0625 -1.25 C-7.06279606 -2.69433753 -3.85199618 -1.45519856 0 0 Z " fill="#040304" transform="translate(602.8125,69.0625)"/>
<path d="M0 0 C6.25568239 1.52577619 10.38483173 4.70228049 14.33203125 9.6796875 C18.09576293 15.87721034 18.02252417 22.99964224 17 30 C14.35921985 37.18986127 9.58319614 42.19606364 3 46 C-3.18816135 48.06272045 -11.63155169 48.31788161 -17.765625 45.91796875 C-19.9375 44.5625 -19.9375 44.5625 -23 42 C-23 41.67 -23 41.34 -23 41 C-18.82503667 40.73906479 -15.96702146 40.86522144 -12.125 42.5625 C-7.59038958 44.4652581 -3.73760954 43.91023517 1 43 C1 42.34 1 41.68 1 41 C1.66 41 2.32 41 3 41 C3 41.66 3 42.32 3 43 C4.65 42.34 6.3 41.68 8 41 C8 40.34 8 39.68 8 39 C8.99 38.505 8.99 38.505 10 38 C11.05352843 35.69034152 12.05719096 33.3570226 13 31 C13.66 31 14.32 31 15 31 C14.82443013 18.10854288 14.82443013 18.10854288 9.12890625 7.15234375 C7.0477442 5.55615562 7.0477442 5.55615562 4.9375 4.25390625 C3.01538663 3.00995788 1.55711924 1.66903719 0 0 Z " fill="#3B80A2" transform="translate(80,58)"/>
<path d="M0 0 C2.72288417 2.39740822 4.06791522 4.83597645 5.5625 8.125 C5.97628906 9.01445313 6.39007813 9.90390625 6.81640625 10.8203125 C10.2318007 19.9956626 10.2463015 28.87783404 10.125 38.5625 C10.11494735 39.96679047 10.10582555 41.37108793 10.09765625 42.77539062 C10.07423093 46.18377485 10.04142746 49.591795 10 53 C7.18743719 53.02684312 4.37512759 53.04676188 1.5625 53.0625 C0.76005859 53.07087891 -0.04238281 53.07925781 -0.86914062 53.08789062 C-2.91295221 53.0965143 -4.95683902 53.0522815 -7 53 C-8.68323742 51.31676258 -8.14885139 49.19768083 -8.17578125 46.890625 C-8.10319367 27.35031181 -8.10319367 27.35031181 -16 10 C-16 9.34 -16 8.68 -16 8 C-13 9 -13 9 -11.9375 10.71484375 C-11.628125 11.44832031 -11.31875 12.18179688 -11 12.9375 C-10.690625 13.64777344 -10.38125 14.35804687 -10.0625 15.08984375 C-6.96497786 23.5738658 -5.51415185 31.0679513 -5.3125 40.125 C-5.27833984 41.176875 -5.24417969 42.22875 -5.20898438 43.3125 C-5.12746142 45.87465007 -5.06203521 48.43730404 -5 51 C1.435 50.505 1.435 50.505 8 50 C8.27006729 39.76745043 8.48324377 29.67477501 6.6875 19.5625 C6.56979248 18.88453369 6.45208496 18.20656738 6.33081055 17.50805664 C5.49715901 13.26619442 4.00257577 9.80882058 2 6 C2 5.34 2 4.68 2 4 C1.34 4 0.68 4 0 4 C0 2.68 0 1.36 0 0 Z " fill="#215A83" transform="translate(120,48)"/>
<path d="M0 0 C-0.99 0.33 -1.98 0.66 -3 1 C-3.495 0.505 -3.495 0.505 -4 0 C-11.00448867 -0.64012902 -16.66430143 -0.05471181 -23 3 C-23.4846875 3.52980469 -23.969375 4.05960938 -24.46875 4.60546875 C-26 6 -26 6 -30 6 C-30.103125 6.70125 -30.20625 7.4025 -30.3125 8.125 C-31.09359003 11.39137647 -32.42058743 14.0471852 -34 17 C-34.66 17 -35.32 17 -36 17 C-34.82890867 26.38413972 -32.95242194 32.55947258 -27 40 C-31.53591122 38.48802959 -33.75548912 35.00692612 -36 31 C-38.70009487 24.60712832 -38.60962849 17.58054278 -36.31640625 11.0546875 C-33.15154661 4.78123239 -27.57394017 0.45076628 -21.5625 -2.9375 C-13.33014567 -5.39276357 -7.48793889 -3.96524424 0 0 Z " fill="#3C9AC0" transform="translate(184,159)"/>
<path d="M0 0 C2.4375 2.1875 2.4375 2.1875 4 4 C3.67 4.66 3.34 5.32 3 6 C2.01 5.34 1.02 4.68 0 4 C0 3.34 0 2.68 0 2 C-1.8871875 1.9690625 -1.8871875 1.9690625 -3.8125 1.9375 C-4.52019531 1.92589844 -5.22789062 1.91429688 -5.95703125 1.90234375 C-8.20305461 1.91736783 -8.20305461 1.91736783 -11 3 C-11 2.34 -11 1.68 -11 1 C-10.34 1 -9.68 1 -9 1 C-9 0.34 -9 -0.32 -9 -1 C-10.98 -0.67 -12.96 -0.34 -15 0 C-14.67 1.32 -14.34 2.64 -14 4 C-15.0725 4.28875 -16.145 4.5775 -17.25 4.875 C-21.33606289 6.03573902 -21.33606289 6.03573902 -25 8 C-25.6993514 10.18541552 -25.6993514 10.18541552 -25.75 12.625 C-25.80671875 13.44226563 -25.8634375 14.25953125 -25.921875 15.1015625 C-25.94765625 15.72804688 -25.9734375 16.35453125 -26 17 C-25.34 17 -24.68 17 -24 17 C-23.7525 17.9075 -23.505 18.815 -23.25 19.75 C-21.7154591 23.73980634 -19.83872404 26.08063798 -16 28 C-13.62597499 28.07116382 -11.24999323 28.08409085 -8.875 28.0625 C-7.59367187 28.05347656 -6.31234375 28.04445313 -4.9921875 28.03515625 C-3.51105469 28.01775391 -3.51105469 28.01775391 -2 28 C-4.71586338 30.71586338 -6.81702816 30.69665708 -10.55078125 31.02734375 C-14.46887149 30.98360112 -17.63550656 29.99123081 -21 28 C-24.96602747 23.92960338 -27.28275161 19.96658771 -27.4375 14.25 C-27.2998518 8.76026601 -25.79984576 4.98341319 -22 1 C-14.78826583 -4.34090773 -7.87257232 -4.15909481 0 0 Z " fill="#3395B9" transform="translate(181,67)"/>
<path d="M0 0 C0.89196878 0.21211844 0.89196878 0.21211844 1.80195713 0.42852211 C8.26767501 1.85802535 14.35899784 2.28357981 20.96655273 2.25537109 C22.01348297 2.25899155 23.06041321 2.262612 24.1390686 2.26634216 C26.39518302 2.27319519 28.65131386 2.27574935 30.90743828 2.27439499 C34.48609855 2.27342324 38.0644638 2.28644812 41.64308167 2.30337524 C51.81191765 2.34945543 61.98072125 2.37425031 72.1496582 2.38085938 C78.38587662 2.38588806 84.62178396 2.41020207 90.8578968 2.44618607 C93.22400096 2.45594736 95.59014809 2.4583362 97.9562664 2.45301437 C101.27253125 2.44590322 104.58787482 2.46330865 107.90405273 2.48583984 C108.86802475 2.47766739 109.83199677 2.46949493 110.82518005 2.46107483 C117.71384736 2.54380445 123.79676192 3.91208745 130 7 C130.33 7.66 130.66 8.32 131 9 C130.33613281 8.79503906 129.67226562 8.59007812 128.98828125 8.37890625 C128.10527344 8.10949219 127.22226563 7.84007812 126.3125 7.5625 C125.44238281 7.29566406 124.57226562 7.02882812 123.67578125 6.75390625 C119.44518043 5.56192675 115.51023535 4.87588255 111.11122131 4.84851074 C110.15380539 4.84016708 109.19638947 4.83182343 108.20996094 4.82322693 C107.17137939 4.81904251 106.13279785 4.81485809 105.06274414 4.81054688 C103.40824501 4.79810692 103.40824501 4.79810692 101.72032166 4.78541565 C99.32769761 4.76803413 96.93505672 4.75286215 94.54240608 4.73963928 C90.75555649 4.71858543 86.96879121 4.69156429 83.18199158 4.66296387 C75.14219263 4.60330847 67.10235681 4.55108766 59.0625 4.5 C49.74939983 4.44080326 40.43634458 4.37842405 31.12331963 4.30812073 C27.39310424 4.28157345 23.66288457 4.26074229 19.93263245 4.2401123 C17.64396971 4.22350607 15.35530888 4.20663395 13.06665039 4.18945312 C12.03009308 4.18526871 10.99353577 4.18108429 9.92556763 4.17677307 C5.17534785 4.13549757 0.67033651 3.98766786 -4 3 C-2.68 2.67 -1.36 2.34 0 2 C0 1.34 0 0.68 0 0 Z " fill="#2E638C" transform="translate(62,136)"/>
<path d="M0 0 C0.9796875 -0.01417969 1.959375 -0.02835938 2.96875 -0.04296875 C5.5 0.1875 5.5 0.1875 7.5 2.1875 C6.85933594 2.15269531 6.21867187 2.11789063 5.55859375 2.08203125 C-0.33335972 1.8976333 -4.29928797 2.37044765 -9.5 5.1875 C-10.16 5.8475 -10.82 6.5075 -11.5 7.1875 C-11.30109544 9.42094065 -11.30109544 9.42094065 -10.625 11.8125 C-10.42132813 12.62976563 -10.21765625 13.44703125 -10.0078125 14.2890625 C-9.84023438 14.91554687 -9.67265625 15.54203125 -9.5 16.1875 C-9.17 16.1875 -8.84 16.1875 -8.5 16.1875 C-8.5 17.8375 -8.5 19.4875 -8.5 21.1875 C-10.48 22.1775 -10.48 22.1775 -12.5 23.1875 C-11.84 25.1675 -11.18 27.1475 -10.5 29.1875 C-14.89517682 24.90502002 -16.65339053 23.0674016 -16.8125 16.9375 C-16.75927779 11.84812631 -15.99801724 9.06368126 -12.5 5.1875 C-8.13834356 1.34508838 -5.77897617 0.03801958 0 0 Z " fill="#2DA0CF" transform="translate(72.5,162.8125)"/>
<path d="M0 0 C0.66 0.33 1.32 0.66 2 1 C1.21654285 2.17219543 0.42297164 3.33763668 -0.375 4.5 C-0.81585938 5.1496875 -1.25671875 5.799375 -1.7109375 6.46875 C-2.13632813 6.9740625 -2.56171875 7.479375 -3 8 C-3.66 8 -4.32 8 -5 8 C-5 8.66 -5 9.32 -5 10 C-7.1875 11.7265625 -7.1875 11.7265625 -10 13.625 C-10.928125 14.25664062 -11.85625 14.88828125 -12.8125 15.5390625 C-13.534375 16.02117187 -14.25625 16.50328125 -15 17 C-14.505 17.99 -14.505 17.99 -14 19 C-19.05482468 20.47782495 -24.15022505 20.18425076 -29.375 20.1875 C-30.40367187 20.19974609 -31.43234375 20.21199219 -32.4921875 20.22460938 C-37.7210911 20.23471679 -42.11643737 20.12292327 -47 18 C-47.33 18.66 -47.66 19.32 -48 20 C-48.66 18.35 -49.32 16.7 -50 15 C-48.27716797 15.48339844 -48.27716797 15.48339844 -46.51953125 15.9765625 C-35.82763551 18.63366437 -23.80121235 18.2413768 -14 13 C-8.32253757 9.55580513 -4.06897562 5.20952182 0 0 Z " fill="#25638B" transform="translate(205,202)"/>
<path d="M0 0 C4.12911592 1.0415517 7.87889817 2.67163103 11.66357422 4.59716797 C12.54658203 5.03158203 13.42958984 5.46599609 14.33935547 5.91357422 C22.12181573 10.16185346 31.91891179 16.84855647 34.66357422 25.59716797 C28.8955143 22.08617498 28.8955143 22.08617498 27.72607422 19.62060547 C26.39352582 17.08288462 25.02118733 16.35139748 22.53857422 14.97216797 C20.34326172 13.74560547 20.34326172 13.74560547 18.66357422 12.59716797 C18.66357422 11.93716797 18.66357422 11.27716797 18.66357422 10.59716797 C18.09380859 10.48373047 17.52404297 10.37029297 16.93701172 10.25341797 C14.41975766 9.52678793 12.52863891 8.44906666 10.28857422 7.09716797 C6.7347222 5.05884293 3.80963073 3.91609539 -0.33642578 3.59716797 C-0.33642578 2.93716797 -0.33642578 2.27716797 -0.33642578 1.59716797 C-9.90642578 1.59716797 -19.47642578 1.59716797 -29.33642578 1.59716797 C-22.16132224 -3.18623439 -8.27979163 -1.42755028 0 0 Z " fill="#25557D" transform="translate(85.33642578125,22.40283203125)"/>
<path d="M0 0 C0.5534764 2.07553648 1 3.84365964 1 6 C7.6 6.33 14.2 6.66 21 7 C21 7.33 21 7.66 21 8 C10.44 8 -0.12 8 -11 8 C-11.33 6.68 -11.66 5.36 -12 4 C-10 1 -10 1 -6.5625 0.3125 C-3 0 -3 0 0 0 Z " fill="#0A090B" transform="translate(343,128)"/>
<path d="M0 0 C7.58251258 4.93745005 10.04311833 12.90052578 12.3125 21.375 C13.79273772 28.99962069 13.7761675 37.44063114 12 45 C11.67 45 11.34 45 11 45 C11.03480469 43.94941406 11.06960937 42.89882812 11.10546875 41.81640625 C11.2874741 33.98270932 11.28243589 27.26611944 8 20 C7.60554687 18.98099609 7.60554687 18.98099609 7.203125 17.94140625 C5.92181155 14.28532469 5.92181155 14.28532469 3 12 C1.70871571 8.05018922 0.74302973 4.08666352 0 0 Z " fill="#28648E" transform="translate(218,147)"/>
<path d="M0 0 C0.66 0.33 1.32 0.66 2 1 C1.50886719 1.60199219 1.01773438 2.20398438 0.51171875 2.82421875 C-1.69847281 7.46733436 -1.32027452 11.74323679 -1.1875 16.8125 C-1.17396484 17.79154297 -1.16042969 18.77058594 -1.14648438 19.77929688 C-1.11125312 22.18676625 -1.06199265 24.59309564 -1 27 C-0.01 27.33 0.98 27.66 2 28 C2 29.98 2 31.96 2 34 C-2.78890135 29.98767725 -4.65697422 26.08558554 -6 20 C-6.6792044 12.12122894 -4.56856306 6.24370285 0 0 Z " fill="#3C8CB2" transform="translate(54,64)"/>
<path d="M0 0 C1.35182904 2.70365807 0.63069913 4.07355606 0 7 C-1.14909763 18.16266269 1.69000529 27.82384768 8.25 36.9375 C13.59175725 43.26632109 20.35321948 47.07144576 28 50 C28 50.33 28 50.66 28 51 C21.79874902 50.61242181 17.99430504 48.61248151 13 45 C12.38898437 44.59007812 11.77796875 44.18015625 11.1484375 43.7578125 C5.36252528 39.45023909 2.82102291 33.48922608 0 27 C-0.38027344 26.25105469 -0.76054687 25.50210938 -1.15234375 24.73046875 C-2.42634418 20.62666092 -2.28882181 16.64539956 -2.25 12.375 C-2.25773437 11.51648438 -2.26546875 10.65796875 -2.2734375 9.7734375 C-2.27085938 8.9484375 -2.26828125 8.1234375 -2.265625 7.2734375 C-2.26336914 6.52497559 -2.26111328 5.77651367 -2.25878906 5.00537109 C-2 3 -2 3 0 0 Z " fill="#1E537D" transform="translate(31,69)"/>
<path d="M0 0 C4.94741312 1.83237523 7.89876009 5.85258217 10.25 10.4375 C12.25831641 17.29924775 12.25352843 23.21581755 10 30 C7.875 32.625 7.875 32.625 6 34 C6.33 30.7 6.66 27.4 7 24 C7.66 24 8.32 24 9 24 C8.10682836 16.84287459 7.25469433 10.93078604 3 5 C2.01 4.34 1.02 3.68 0 3 C0 2.01 0 1.02 0 0 Z " fill="#4093BB" transform="translate(184,160)"/>
<path d="M0 0 C4.17496333 -0.26093521 7.03297854 -0.13477856 10.875 1.5625 C15.40961042 3.4652581 19.26239046 2.91023517 24 2 C24 1.34 24 0.68 24 0 C24.66 0 25.32 0 26 0 C25.42655063 2.86724686 25.1385485 3.8614515 23 6 C16.21361111 6.7881503 9.03738282 7.2873819 3.0625 3.5625 C2.051875 2.716875 1.04125 1.87125 0 1 C0 0.67 0 0.34 0 0 Z " fill="#3892BD" transform="translate(57,99)"/>
<path d="M0 0 C7 8.44827586 7 8.44827586 7 12 C7.66 12 8.32 12 9 12 C9.825 13.010625 10.65 14.02125 11.5 15.0625 C19.64871296 24.7820492 31.56648396 30.25037349 44 32 C41.44887833 33.70276767 40.36842784 34.06878031 37.30078125 33.49609375 C21.8743334 28.03129981 9.14189055 19.47481541 0.8125 4.92578125 C0 3 0 3 0 0 Z " fill="#20517C" transform="translate(18,105)"/>
<path d="M0 0 C-1.0725 0.515625 -2.145 1.03125 -3.25 1.5625 C-7.33402095 3.91039868 -9.34532373 6.61783538 -11 11 C-11.54380638 13.36878372 -11.8013653 15.56672495 -12 18 C-11.34 18 -10.68 18 -10 18 C-9.7525 18.9075 -9.505 19.815 -9.25 20.75 C-7.7154591 24.73980634 -5.83872404 27.08063798 -2 29 C0.37402501 29.07116382 2.75000677 29.08409085 5.125 29.0625 C6.40632813 29.05347656 7.68765625 29.04445313 9.0078125 29.03515625 C10.48894531 29.01775391 10.48894531 29.01775391 12 29 C9.28413662 31.71586338 7.18297184 31.69665708 3.44921875 32.02734375 C-0.46887149 31.98360112 -3.63550656 30.99123081 -7 29 C-10.96602747 24.92960338 -13.28275161 20.96658771 -13.4375 15.25 C-13.32390727 9.75698012 -11.6016517 6.1021537 -8 2 C-3.82978723 -1.27659574 -3.82978723 -1.27659574 0 0 Z " fill="#3A82A0" transform="translate(167,66)"/>
<path d="M0 0 C0.66 0.33 1.32 0.66 2 1 C-2.51990921 6.08489786 -7.06639756 9.58620546 -14.0078125 10.31640625 C-19.21103887 10.4122888 -23.21879619 10.1851937 -28 8 C-25.43116298 7.17797215 -23.48089711 7.00998275 -20.75 7.0625 C-16.42687229 6.99044787 -13.12411933 6.2798991 -9 5 C-8.67 4.34 -8.34 3.68 -8 3 C-3.52459016 1.73770492 -3.52459016 1.73770492 -1 3 C-0.67 2.01 -0.34 1.02 0 0 Z " fill="#4590B6" transform="translate(188,194)"/>
<path d="M0 0 C1.47968324 0.14049518 2.95874516 0.28754826 4.4375 0.4375 C5.67306641 0.55931641 5.67306641 0.55931641 6.93359375 0.68359375 C9 1 9 1 10 2 C10 3.98 10 5.96 10 8 C5.38 8 0.76 8 -4 8 C-3.01 7.67 -2.02 7.34 -1 7 C-1 6.34 -1 5.68 -1 5 C-1.99 4.67 -2.98 4.34 -4 4 C-2.68 3.67 -1.36 3.34 0 3 C0 2.01 0 1.02 0 0 Z " fill="#0C0A0C" transform="translate(278,128)"/>
<path d="M0 0 C4.76350585 0.71452588 9.34201396 1.79534844 14 3 C14.33 2.34 14.66 1.68 15 1 C15.66 1.99 16.32 2.98 17 4 C24.79584118 6.09156714 32.65184134 5.07329656 40.421875 3.4375 C43.00050813 2.99991377 45.39012489 2.92489568 48 3 C39.09806079 8.93462614 25.5406621 8.00625571 15.29296875 6.4296875 C9.82602946 5.24258068 4.81239588 3.88743753 0 1 C0 0.67 0 0.34 0 0 Z " fill="#2C628E" transform="translate(144,232)"/>
<path d="M0 0 C1 3 1 3 0.1015625 5.34765625 C-7.14922126 18.67912374 -17.73482638 30.24620321 -32 36 C-32.66 36 -33.32 36 -34 36 C-34 35.34 -34 34.68 -34 34 C-33.443125 33.78085938 -32.88625 33.56171875 -32.3125 33.3359375 C-17.02399561 26.98294412 -6.74082562 14.8795183 0 0 Z " fill="#2A5983" transform="translate(226,199)"/>
<path d="M0 0 C0 0.66 0 1.32 0 2 C-1.07121094 1.57074219 -1.07121094 1.57074219 -2.1640625 1.1328125 C-3.09992188 0.75898437 -4.03578125 0.38515625 -5 0 C-5.85335937 -0.35320313 -6.70671875 -0.70640625 -7.5859375 -1.0703125 C-22.59917893 -6.74758867 -35.59825008 -3.85565656 -50 2 C-50 1.34 -50 0.68 -50 0 C-35.28407444 -10.09092039 -15.04688414 -7.62650292 0 0 Z " fill="#255B86" transform="translate(96,46)"/>
<path d="M0 0 C1.64630328 0.14042877 3.29204179 0.28749329 4.9375 0.4375 C6.31228516 0.55931641 6.31228516 0.55931641 7.71484375 0.68359375 C10 1 10 1 11 2 C11.04080783 3.99958364 11.04254356 6.00045254 11 8 C7.37 8 3.74 8 0 8 C0 7.01 0 6.02 0 5 C1.32 4.67 2.64 4.34 4 4 C4 3.34 4 2.68 4 2 C2.68 1.34 1.36 0.68 0 0 Z " fill="#101011" transform="translate(365,128)"/>
<path d="M0 0 C0.9796875 -0.01417969 1.959375 -0.02835938 2.96875 -0.04296875 C5.5 0.1875 5.5 0.1875 7.5 2.1875 C6.85933594 2.15269531 6.21867187 2.11789063 5.55859375 2.08203125 C-0.32631249 1.89785386 -4.37021472 2.21222454 -9.5 5.1875 C-13.75321305 9.77649303 -14.8303905 12.74609387 -14.80078125 18.85546875 C-14.33395521 22.47488627 -12.78892718 24.39787 -10.5 27.1875 C-10.83 27.8475 -11.16 28.5075 -11.5 29.1875 C-15.96507631 23.71418065 -16.85471077 20.97390443 -16.78125 13.94921875 C-16.25680645 8.79947444 -13.61955658 6.17377603 -9.875 2.875 C-6.30700736 0.33984733 -4.35443141 0.02864758 0 0 Z " fill="#3D849E" transform="translate(72.5,162.8125)"/>
<path d="M0 0 C10.41972772 1.48581126 20.74478404 9.45113329 27.04296875 17.6640625 C28.74750747 20.07967626 30.39964689 22.51445158 32 25 C31.67 25.66 31.34 26.32 31 27 C30.443125 26.20335937 29.88625 25.40671875 29.3125 24.5859375 C23.81175872 16.94808389 18.58127928 11.12962226 10 7 C10 6.34 10 5.68 10 5 C9.04287109 4.70996094 9.04287109 4.70996094 8.06640625 4.4140625 C6.82697266 4.02347656 6.82697266 4.02347656 5.5625 3.625 C4.73878906 3.36976563 3.91507813 3.11453125 3.06640625 2.8515625 C1 2 1 2 0 0 Z " fill="#29567A" transform="translate(191,125)"/>
<path d="M0 0 C0.33 1.32 0.66 2.64 1 4 C-0.98 4.99 -0.98 4.99 -3 6 C-3.45815207 18.08163973 -2.43769645 25.3510965 5 35 C0.46408878 33.48802959 -1.75548912 30.00692612 -4 26 C-6.47694517 20.13546805 -6.41794296 14.1510765 -5 8 C-3.73644706 5.06940663 -2.28369729 2.28369729 0 0 Z " fill="#458CA9" transform="translate(152,164)"/>
<path d="M0 0 C0.33 0.66 0.66 1.32 1 2 C1.66 2 2.32 2 3 2 C5.30844801 8.34823202 5.19818283 14.29481414 5 21 C4.34 21 3.68 21 3 21 C2.67 19.35 2.34 17.7 2 16 C1.34 17.32 0.68 18.64 0 20 C-0.04254356 18.00045254 -0.04080783 15.99958364 0 14 C0.33 13.67 0.66 13.34 1 13 C0.9622362 11.16409812 0.84545801 9.32948383 0.6875 7.5 C0.60886719 6.4996875 0.53023438 5.499375 0.44921875 4.46875 C0.30097656 3.6540625 0.15273437 2.839375 0 2 C-0.66 1.67 -1.32 1.34 -2 1 C-1.34 0.67 -0.68 0.34 0 0 Z " fill="#2C9FD2" transform="translate(90,68)"/>
<path d="M0 0 C0.66 0 1.32 0 2 0 C3.296875 1.50390625 3.296875 1.50390625 4.75 3.5625 C5.28753906 4.29597656 5.82507813 5.02945313 6.37890625 5.78515625 C6.91386719 6.51605469 7.44882813 7.24695313 8 8 C12.69754216 14.34099714 18.5170016 18.55880003 25 23 C24.34 23.33 23.68 23.66 23 24 C13.21283045 18.01895194 5.76920868 10.98684988 0 1 C0 0.67 0 0.34 0 0 Z " fill="#26567B" transform="translate(119,208)"/>
<path d="M0 0 C3.34373475 0.55728913 6.03312999 1.35173889 9 3 C8.67 3.99 8.34 4.98 8 6 C6.68 6 5.36 6 4 6 C3.67 6.66 3.34 7.32 3 8 C1.68 7.01 0.36 6.02 -1 5 C-0.67 3.35 -0.34 1.7 0 0 Z " fill="#226AA2" transform="translate(146,214)"/>
<path d="M0 0 C2 3 2 3 2 5 C1.34 5 0.68 5 0 5 C0.65271556 8.51705958 1.51393024 11.89325077 2.5625 15.3125 C2.83191406 16.19550781 3.10132813 17.07851562 3.37890625 17.98828125 C3.58386719 18.65214844 3.78882813 19.31601563 4 20 C3.34 20.33 2.68 20.66 2 21 C-1.41106952 14.4744757 -2.1210303 10.26181791 -2 3 C-1.34 3 -0.68 3 0 3 C0 2.01 0 1.02 0 0 Z " fill="#3CA2D4" transform="translate(150,173)"/>
<path d="M0 0 C0.99 0.66 1.98 1.32 3 2 C2.40574219 1.94199219 1.81148437 1.88398438 1.19921875 1.82421875 C-6.29293665 1.41640314 -11.44616254 3.54510166 -18 7 C-19.33243486 7.66846059 -20.66542752 8.33581741 -22 9 C-17.19664548 1.48170597 -8.68049587 -1.49904145 0 0 Z " fill="#4C889E" transform="translate(175,155)"/>
<path d="M0 0 C-5.8405789 4.34299457 -11.97625959 6.29968275 -19 8 C-16.10566319 4.81213375 -13.41353184 2.96686681 -9.5 1.1875 C-8.5615625 0.74792969 -7.623125 0.30835937 -6.65625 -0.14453125 C-3.86758178 -1.04264645 -2.68941917 -1.03390407 0 0 Z " fill="#2A5C7C" transform="translate(56,25)"/>
<path d="M0 0 C2 1 2 1 3.4375 4 C4.70863827 7.28917058 4.70863827 7.28917058 8 8 C10.125 8.75 10.125 8.75 12 10 C12.75 12.625 12.75 12.625 13 15 C9.60059839 13.49866245 7.08558138 11.5238962 4.3125 9.0625 C3.52488281 8.37285156 2.73726562 7.68320313 1.92578125 6.97265625 C0 5 0 5 -1 2 C-0.67 1.34 -0.34 0.68 0 0 Z " fill="#2D76B0" transform="translate(27,114)"/>
<path d="M0 0 C0.88945313 0.00322266 1.77890625 0.00644531 2.6953125 0.00976562 C4.07589844 0.02233398 4.07589844 0.02233398 5.484375 0.03515625 C6.42023438 0.03966797 7.35609375 0.04417969 8.3203125 0.04882812 C10.62506541 0.06058707 12.92968727 0.07702199 15.234375 0.09765625 C15.234375 0.42765625 15.234375 0.75765625 15.234375 1.09765625 C14.61393311 1.15300537 13.99349121 1.20835449 13.35424805 1.26538086 C10.54310863 1.51825973 7.73250178 1.77664459 4.921875 2.03515625 C3.94541016 2.12216797 2.96894531 2.20917969 1.96289062 2.29882812 C0.55620117 2.4293457 0.55620117 2.4293457 -0.87890625 2.5625 C-1.74298096 2.64105225 -2.60705566 2.71960449 -3.49731445 2.80053711 C-5.92649212 3.04553602 -5.92649212 3.04553602 -8.765625 4.09765625 C-8.765625 3.10765625 -8.765625 2.11765625 -8.765625 1.09765625 C-5.76855805 0.22802538 -3.11605974 -0.01997474 0 0 Z " fill="#246A9B" transform="translate(64.765625,22.90234375)"/>
<path d="M0 0 C0.66 0.33 1.32 0.66 2 1 C1.56429687 1.36609375 1.12859375 1.7321875 0.6796875 2.109375 C-4.96554979 7.2414089 -7.90476592 13.09524705 -11 20 C-11.66 19.67 -12.32 19.34 -13 19 C-6.57954545 3.28977273 -6.57954545 3.28977273 0 0 Z " fill="#1A527D" transform="translate(44,48)"/>
<path d="M0 0 C0.33 0.66 0.66 1.32 1 2 C-2.63547261 8.11238801 -5.93009101 12.23665643 -12 16 C-12.66 15.67 -13.32 15.34 -14 15 C-9.25 11 -9.25 11 -7 11 C-7 10.34 -7 9.68 -7 9 C-6.34 8.67 -5.68 8.34 -5 8 C-4.505 6.845 -4.01 5.69 -3.5 4.5 C-2 1 -2 1 0 0 Z " fill="#347A9A" transform="translate(95,88)"/>
<path d="M0 0 C1.65 0.33 3.3 0.66 5 1 C5 5.62 5 10.24 5 15 C4.67 15 4.34 15 4 15 C3.67 12.03 3.34 9.06 3 6 C1.68 5.67 0.36 5.34 -1 5 C-1.33 4.34 -1.66 3.68 -2 3 C-1.01 3 -0.02 3 1 3 C0.67 2.01 0.34 1.02 0 0 Z " fill="#090708" transform="translate(555,169)"/>
<path d="M0 0 C1.60296469 2.91752987 2.45025359 5.54547081 3.0625 8.8125 C3.22621094 9.68261719 3.38992187 10.55273438 3.55859375 11.44921875 C4.10844776 14.62669371 4.58292887 17.80245465 5 21 C2.44045847 18.44045847 1.90174471 16.19468725 0.8125 12.75 C0.44769531 11.63109375 0.08289063 10.5121875 -0.29296875 9.359375 C-1.03438148 5.83664048 -0.82654582 3.47465121 0 0 Z " fill="#245C87" transform="translate(13,85)"/>
<path d="M0 0 C1.04423719 3.39377086 1 6.46829831 1 10 C1.43941523 12.26566343 1.43941523 12.26566343 2 14 C1.01 14.33 0.02 14.66 -1 15 C-2.16297973 12.67404054 -2.16600691 11.21276769 -2.1875 8.625 C-2.20167969 7.85414063 -2.21585938 7.08328125 -2.23046875 6.2890625 C-1.97801607 3.78165112 -1.25193467 2.16738098 0 0 Z " fill="#349CC6" transform="translate(59,171)"/>
<path d="M0 0 C3 1 3 1 4.09765625 2.85546875 C5.08074675 5.23160247 6.06143705 7.60586908 7 10 C7.433125 11.093125 7.86625 12.18625 8.3125 13.3125 C9.03573787 16.1397026 8.80544481 17.2823481 8 20 C7.82984375 19.443125 7.6596875 18.88625 7.484375 18.3125 C5.97095547 13.54683849 4.2122852 9.14407211 1.8671875 4.7265625 C1 3 1 3 0 0 Z " fill="#245F8A" transform="translate(104,56)"/>
<path d="M0 0 C0 5.28 0 10.56 0 16 C-3.15353333 11.7952889 -3.36246719 11.14908143 -3.1875 6.25 C-3.16042969 5.26515625 -3.13335938 4.2803125 -3.10546875 3.265625 C-3.07066406 2.51796875 -3.03585938 1.7703125 -3 1 C-1 0 -1 0 0 0 Z " fill="#1D66A2" transform="translate(29,72)"/>
<path d="M0 0 C3.42931954 3.7559214 4.56429083 8.23466745 6 13 C2.95324793 11.66901721 2.06538228 11.10145526 0.1875 8.1875 C-1.07069492 4.81023996 -1.0899321 3.36888105 0 0 Z " fill="#22689E" transform="translate(121,52)"/>
<path d="M0 0 C0.66 0.33 1.32 0.66 2 1 C0.90398831 2.00893131 -0.20213918 3.00688225 -1.3125 4 C-2.23482422 4.8353125 -2.23482422 4.8353125 -3.17578125 5.6875 C-5 7 -5 7 -8 7 C-7.9375 5.1875 -7.9375 5.1875 -7 3 C-3.5625 1.1875 -3.5625 1.1875 0 0 Z " fill="#266996" transform="translate(41,31)"/>
<path d="M0 0 C4.62 0 9.24 0 14 0 C14.33 1.32 14.66 2.64 15 4 C14.01 4.495 14.01 4.495 13 5 C12.67 4.01 12.34 3.02 12 2 C9.03 1.67 6.06 1.34 3 1 C2.67 2.32 2.34 3.64 2 5 C2 4.34 2 3.68 2 3 C1.34 3 0.68 3 0 3 C0 2.01 0 1.02 0 0 Z " fill="#276596" transform="translate(114,160)"/>
<path d="M0 0 C-1.29980583 3.89941749 -2.93254102 4.53257489 -6.375 6.6875 C-7.35210937 7.31011719 -8.32921875 7.93273437 -9.3359375 8.57421875 C-12 10 -12 10 -15 10 C-13.54634731 8.82750647 -12.08692581 7.66216184 -10.625 6.5 C-9.40683594 5.52546875 -9.40683594 5.52546875 -8.1640625 4.53125 C-6 3 -6 3 -4 3 C-4 2.34 -4 1.68 -4 1 C-2 0 -2 0 0 0 Z " fill="#2976A3" transform="translate(204,209)"/>
<path d="M0 0 C0.33 0 0.66 0 1 0 C1 6.93 1 13.86 1 21 C-0.65 21 -2.3 21 -4 21 C-3.5155542 20.59225342 -3.0311084 20.18450684 -2.53198242 19.7644043 C-0.66889629 17.61866351 -0.58770927 16.57340154 -0.48828125 13.76953125 C-0.45283203 12.96708984 -0.41738281 12.16464844 -0.38085938 11.33789062 C-0.35830078 10.50451172 -0.33574219 9.67113281 -0.3125 8.8125 C-0.27833984 7.96751953 -0.24417969 7.12253906 -0.20898438 6.25195312 C-0.12658529 4.16843351 -0.06161355 2.08423784 0 0 Z " fill="#21699D" transform="translate(128,77)"/>
<path d="M0 0 C5.28 0.99 10.56 1.98 16 3 C16 3.33 16 3.66 16 4 C10.96488101 5.0070238 7.76052962 4.97387813 3 3 C2.67 3.66 2.34 4.32 2 5 C1.34 3.35 0.68 1.7 0 0 Z " fill="#215981" transform="translate(155,217)"/>
<path d="M0 0 C3.40424844 1.13474948 4.21653709 1.96811304 6 5 C5.67 5.99 5.34 6.98 5 8 C2 7 2 7 0.25 4.5625 C-0.1625 3.716875 -0.575 2.87125 -1 2 C-0.67 1.34 -0.34 0.68 0 0 Z " fill="#2C74AE" transform="translate(102,49)"/>
<path d="M0 0 C0.99 0.33 1.98 0.66 3 1 C2.67 2.65 2.34 4.3 2 6 C1.01 6 0.02 6 -1 6 C-1.66 4.68 -2.32 3.36 -3 2 C-2.01 2 -1.02 2 0 2 C0 1.34 0 0.68 0 0 Z " fill="#3A98C5" transform="translate(180,88)"/>
<path d="M0 0 C2.475 0.495 2.475 0.495 5 1 C5 1.66 5 2.32 5 3 C5.66 3 6.32 3 7 3 C7 3.66 7 4.32 7 5 C7.99 5.33 8.98 5.66 10 6 C5.8333396 5.52651586 3.07115285 4.95303159 0 2 C0 1.34 0 0.68 0 0 Z " fill="#3C9FCA" transform="translate(159,90)"/>
<path d="M0 0 C0.66 0 1.32 0 2 0 C2 1.66666667 2 3.33333333 2 5 C-3.41538462 5.36923077 -3.41538462 5.36923077 -6.375 3.5 C-6.91125 3.005 -7.4475 2.51 -8 2 C-6.865625 1.855625 -5.73125 1.71125 -4.5625 1.5625 C-1.19222799 1.38828522 -1.19222799 1.38828522 0 0 Z " fill="#2678B9" transform="translate(156,230)"/>
<path d="M0 0 C3.36591866 1.44253657 5.51047079 3.33264727 8 6 C7.67 6.66 7.34 7.32 7 8 C5.82512964 7.24172908 4.66027408 6.46792245 3.5 5.6875 C2.52546875 5.04361328 2.52546875 5.04361328 1.53125 4.38671875 C1.0259375 3.92910156 0.520625 3.47148437 0 3 C0 2.01 0 1.02 0 0 Z " fill="#428BAD" transform="translate(184,160)"/>
<path d="M0 0 C0.928125 0.2784375 0.928125 0.2784375 1.875 0.5625 C4.04160178 1.23686176 4.04160178 1.23686176 6 0 C6.33 1.98 6.66 3.96 7 6 C5.68 5.67 4.36 5.34 3 5 C3.33 4.67 3.66 4.34 4 4 C2.35 3.67 0.7 3.34 -1 3 C-0.67 2.01 -0.34 1.02 0 0 Z " fill="#0B0B0C" transform="translate(257,130)"/>
<path d="M0 0 C3.3 0.66 6.6 1.32 10 2 C10 2.33 10 2.66 10 3 C4.97874074 3.77916092 1.02296004 4.13016601 -4 3 C-2.68 2.67 -1.36 2.34 0 2 C0 1.34 0 0.68 0 0 Z " fill="#286498" transform="translate(62,136)"/>
<path d="M0 0 C0.33 0 0.66 0 1 0 C1.09765625 6.15234375 1.09765625 6.15234375 1 8 C0 9 0 9 -3.5625 9.0625 C-4.696875 9.041875 -5.83125 9.02125 -7 9 C-7 8.67 -7 8.34 -7 8 C-5.35 7.67 -3.7 7.34 -2 7 C-1.34 4.69 -0.68 2.38 0 0 Z " fill="#0A0809" transform="translate(639,92)"/>
<path d="M0 0 C-5.41538462 4.06153846 -5.41538462 4.06153846 -8.375 3.75 C-8.91125 3.5025 -9.4475 3.255 -10 3 C-9.01 3 -8.02 3 -7 3 C-7 2.01 -7 1.02 -7 0 C-3.86650268 -1.04449911 -3.01031744 -0.93423645 0 0 Z " fill="#286287" transform="translate(56,25)"/>
<path d="M0 0 C2.475 0.495 2.475 0.495 5 1 C5.33 2.32 5.66 3.64 6 5 C4.35 4.67 2.7 4.34 1 4 C0.67 2.68 0.34 1.36 0 0 Z " fill="#39A0CC" transform="translate(155,196)"/>
<path d="M0 0 C-0.99 0.33 -1.98 0.66 -3 1 C-3.33 1.99 -3.66 2.98 -4 4 C-4.99 4 -5.98 4 -7 4 C-7.66 3.34 -8.32 2.68 -9 2 C-3.375 -1.125 -3.375 -1.125 0 0 Z " fill="#0B0B0C" transform="translate(331,159)"/>
<path d="M0 0 C0.66 0.33 1.32 0.66 2 1 C2 2.98 2 4.96 2 7 C1.01 6.67 0.02 6.34 -1 6 C-2.1875 3.4375 -2.1875 3.4375 -3 1 C-2.01 0.67 -1.02 0.34 0 0 Z " fill="#060609" transform="translate(374,129)"/>
<path d="M0 0 C0.66 1.32 1.32 2.64 2 4 C1.01 4.33 0.02 4.66 -1 5 C-1 5.66 -1 6.32 -1 7 C-2.98 7.99 -2.98 7.99 -5 9 C-4.34 7.35 -3.68 5.7 -3 4 C-2.34 4 -1.68 4 -1 4 C-0.67 2.68 -0.34 1.36 0 0 Z " fill="#359ECF" transform="translate(89,92)"/>
<path d="M0 0 C5.01113235 1.4317521 6.94469549 3.98445693 10 8 C9.01 8.495 9.01 8.495 8 9 C7.4225 8.21625 6.845 7.4325 6.25 6.625 C4.17102363 4.19952756 2.90959667 3.14305583 0 2 C0 1.34 0 0.68 0 0 Z " fill="#3595C2" transform="translate(83,61)"/>
<path d="M0 0 C0.93423645 3.01031744 1.04449911 3.86650268 0 7 C-1.32 6.34 -2.64 5.68 -4 5 C-3.67 4.01 -3.34 3.02 -3 2 C-2.01 2 -1.02 2 0 2 C0 1.34 0 0.68 0 0 Z " fill="#236399" transform="translate(228,192)"/>
<path d="M0 0 C2.5625 2.25 2.5625 2.25 5 5 C4.8125 7.3125 4.8125 7.3125 4 9 C0 4.5 0 4.5 0 0 Z " fill="#2B6C9C" transform="translate(218,147)"/>
<path d="M0 0 C3.63 0 7.26 0 11 0 C9.68 0.33 8.36 0.66 7 1 C7 1.66 7 2.32 7 3 C4.0625 2.625 4.0625 2.625 1 2 C0.67 1.34 0.34 0.68 0 0 Z " fill="#2D76B2" transform="translate(66,122)"/>
<path d="M0 0 C2 1 2 1 2 1 Z M-5 1 C-1.95613276 0.91773332 0.07175348 1.02391783 3 2 C3 2.99 3 3.98 3 5 C-2.75 3.25 -2.75 3.25 -5 1 Z " fill="#080808" transform="translate(344,65)"/>
<path d="M0 0 C2.64 1.98 5.28 3.96 8 6 C7.01 6.33 6.02 6.66 5 7 C1.67098753 4.78065836 1.24976756 3.65316671 0 0 Z " fill="#2E71A7" transform="translate(207,135)"/>
<path d="M0 0 C1.61949011 2.57213134 2.04408751 3.67669159 1.625 6.75 C1.41875 7.4925 1.2125 8.235 1 9 C0.34 9 -0.32 9 -1 9 C-1.125 2.25 -1.125 2.25 0 0 Z " fill="#379FCF" transform="translate(156,75)"/>
<path d="M0 0 C1.32 0 2.64 0 4 0 C3.67 0.99 3.34 1.98 3 3 C0.4375 4.1875 0.4375 4.1875 -2 5 C-1.34 3.35 -0.68 1.7 0 0 Z " fill="#3CA2C9" transform="translate(180,197)"/>
<path d="M0 0 C-1.65 1.32 -3.3 2.64 -5 4 C-5.99 3.01 -6.98 2.02 -8 1 C-5.29120665 -0.35439668 -2.99066732 -0.06501451 0 0 Z " fill="#2C9EC4" transform="translate(76,164)"/>
<path d="M0 0 C1.98 0 3.96 0 6 0 C5.34 1.32 4.68 2.64 4 4 C2.68 3.67 1.36 3.34 0 3 C0 2.01 0 1.02 0 0 Z " fill="#0A0A0C" transform="translate(365,132)"/>
<path d="" fill="#000000" transform="translate(0,0)"/>
<path d="" fill="#000000" transform="translate(0,0)"/>
<path d="" fill="#000000" transform="translate(0,0)"/>
<path d="" fill="#000000" transform="translate(0,0)"/>
<path d="" fill="#000000" transform="translate(0,0)"/>
<path d="" fill="#000000" transform="translate(0,0)"/>
<path d="" fill="#000000" transform="translate(0,0)"/>
<path d="" fill="#000000" transform="translate(0,0)"/>
<path d="" fill="#000000" transform="translate(0,0)"/>
<path d="" fill="#000000" transform="translate(0,0)"/>
<path d="" fill="#000000" transform="translate(0,0)"/>
<path d="" fill="#000000" transform="translate(0,0)"/>
<path d="" fill="#000000" transform="translate(0,0)"/>
<path d="" fill="#000000" transform="translate(0,0)"/>
<path d="" fill="#000000" transform="translate(0,0)"/>
<path d="" fill="#000000" transform="translate(0,0)"/>
<path d="" fill="#000000" transform="translate(0,0)"/>
</svg>
